G04*
G04 #@! TF.GenerationSoftware,Altium Limited,Altium Designer,22.7.1 (60)*
G04*
G04 Layer_Color=8388736*
%FSLAX43Y43*%
%MOMM*%
G71*
G04*
G04 #@! TF.SameCoordinates,954B6AC0-D961-4D12-9847-DB1D38B5DF19*
G04*
G04*
G04 #@! TF.FilePolarity,Negative*
G04*
G01*
G75*
G04:AMPARAMS|DCode=18|XSize=0.66mm|YSize=0.65mm|CornerRadius=0.1mm|HoleSize=0mm|Usage=FLASHONLY|Rotation=0.000|XOffset=0mm|YOffset=0mm|HoleType=Round|Shape=RoundedRectangle|*
%AMROUNDEDRECTD18*
21,1,0.660,0.450,0,0,0.0*
21,1,0.460,0.650,0,0,0.0*
1,1,0.200,0.230,-0.225*
1,1,0.200,-0.230,-0.225*
1,1,0.200,-0.230,0.225*
1,1,0.200,0.230,0.225*
%
%ADD18ROUNDEDRECTD18*%
G04:AMPARAMS|DCode=19|XSize=0.64mm|YSize=0.65mm|CornerRadius=0.099mm|HoleSize=0mm|Usage=FLASHONLY|Rotation=90.000|XOffset=0mm|YOffset=0mm|HoleType=Round|Shape=RoundedRectangle|*
%AMROUNDEDRECTD19*
21,1,0.640,0.453,0,0,90.0*
21,1,0.443,0.650,0,0,90.0*
1,1,0.198,0.226,0.221*
1,1,0.198,0.226,-0.221*
1,1,0.198,-0.226,-0.221*
1,1,0.198,-0.226,0.221*
%
%ADD19ROUNDEDRECTD19*%
G04:AMPARAMS|DCode=20|XSize=0.66mm|YSize=0.65mm|CornerRadius=0.1mm|HoleSize=0mm|Usage=FLASHONLY|Rotation=90.000|XOffset=0mm|YOffset=0mm|HoleType=Round|Shape=RoundedRectangle|*
%AMROUNDEDRECTD20*
21,1,0.660,0.450,0,0,90.0*
21,1,0.460,0.650,0,0,90.0*
1,1,0.200,0.225,0.230*
1,1,0.200,0.225,-0.230*
1,1,0.200,-0.225,-0.230*
1,1,0.200,-0.225,0.230*
%
%ADD20ROUNDEDRECTD20*%
G04:AMPARAMS|DCode=21|XSize=0.99mm|YSize=1.08mm|CornerRadius=0.142mm|HoleSize=0mm|Usage=FLASHONLY|Rotation=180.000|XOffset=0mm|YOffset=0mm|HoleType=Round|Shape=RoundedRectangle|*
%AMROUNDEDRECTD21*
21,1,0.990,0.795,0,0,180.0*
21,1,0.705,1.080,0,0,180.0*
1,1,0.285,-0.353,0.398*
1,1,0.285,0.353,0.398*
1,1,0.285,0.353,-0.398*
1,1,0.285,-0.353,-0.398*
%
%ADD21ROUNDEDRECTD21*%
G04:AMPARAMS|DCode=22|XSize=0.54mm|YSize=0.5mm|CornerRadius=0.081mm|HoleSize=0mm|Usage=FLASHONLY|Rotation=0.000|XOffset=0mm|YOffset=0mm|HoleType=Round|Shape=RoundedRectangle|*
%AMROUNDEDRECTD22*
21,1,0.540,0.338,0,0,0.0*
21,1,0.378,0.500,0,0,0.0*
1,1,0.163,0.189,-0.169*
1,1,0.163,-0.189,-0.169*
1,1,0.163,-0.189,0.169*
1,1,0.163,0.189,0.169*
%
%ADD22ROUNDEDRECTD22*%
G04:AMPARAMS|DCode=23|XSize=0.64mm|YSize=0.65mm|CornerRadius=0.099mm|HoleSize=0mm|Usage=FLASHONLY|Rotation=180.000|XOffset=0mm|YOffset=0mm|HoleType=Round|Shape=RoundedRectangle|*
%AMROUNDEDRECTD23*
21,1,0.640,0.453,0,0,180.0*
21,1,0.443,0.650,0,0,180.0*
1,1,0.198,-0.221,0.226*
1,1,0.198,0.221,0.226*
1,1,0.198,0.221,-0.226*
1,1,0.198,-0.221,-0.226*
%
%ADD23ROUNDEDRECTD23*%
G04:AMPARAMS|DCode=24|XSize=1.41mm|YSize=1.86mm|CornerRadius=0.195mm|HoleSize=0mm|Usage=FLASHONLY|Rotation=90.000|XOffset=0mm|YOffset=0mm|HoleType=Round|Shape=RoundedRectangle|*
%AMROUNDEDRECTD24*
21,1,1.410,1.470,0,0,90.0*
21,1,1.020,1.860,0,0,90.0*
1,1,0.390,0.735,0.510*
1,1,0.390,0.735,-0.510*
1,1,0.390,-0.735,-0.510*
1,1,0.390,-0.735,0.510*
%
%ADD24ROUNDEDRECTD24*%
G04:AMPARAMS|DCode=25|XSize=1.41mm|YSize=1.86mm|CornerRadius=0.195mm|HoleSize=0mm|Usage=FLASHONLY|Rotation=180.000|XOffset=0mm|YOffset=0mm|HoleType=Round|Shape=RoundedRectangle|*
%AMROUNDEDRECTD25*
21,1,1.410,1.470,0,0,180.0*
21,1,1.020,1.860,0,0,180.0*
1,1,0.390,-0.510,0.735*
1,1,0.390,0.510,0.735*
1,1,0.390,0.510,-0.735*
1,1,0.390,-0.510,-0.735*
%
%ADD25ROUNDEDRECTD25*%
G04:AMPARAMS|DCode=26|XSize=1.1mm|YSize=1.12mm|CornerRadius=0.156mm|HoleSize=0mm|Usage=FLASHONLY|Rotation=180.000|XOffset=0mm|YOffset=0mm|HoleType=Round|Shape=RoundedRectangle|*
%AMROUNDEDRECTD26*
21,1,1.100,0.807,0,0,180.0*
21,1,0.788,1.120,0,0,180.0*
1,1,0.313,-0.394,0.404*
1,1,0.313,0.394,0.404*
1,1,0.313,0.394,-0.404*
1,1,0.313,-0.394,-0.404*
%
%ADD26ROUNDEDRECTD26*%
G04:AMPARAMS|DCode=27|XSize=0.99mm|YSize=1.08mm|CornerRadius=0.142mm|HoleSize=0mm|Usage=FLASHONLY|Rotation=90.000|XOffset=0mm|YOffset=0mm|HoleType=Round|Shape=RoundedRectangle|*
%AMROUNDEDRECTD27*
21,1,0.990,0.795,0,0,90.0*
21,1,0.705,1.080,0,0,90.0*
1,1,0.285,0.398,0.353*
1,1,0.285,0.398,-0.353*
1,1,0.285,-0.398,-0.353*
1,1,0.285,-0.398,0.353*
%
%ADD27ROUNDEDRECTD27*%
G04:AMPARAMS|DCode=28|XSize=0.97mm|YSize=1.13mm|CornerRadius=0.14mm|HoleSize=0mm|Usage=FLASHONLY|Rotation=0.000|XOffset=0mm|YOffset=0mm|HoleType=Round|Shape=RoundedRectangle|*
%AMROUNDEDRECTD28*
21,1,0.970,0.850,0,0,0.0*
21,1,0.690,1.130,0,0,0.0*
1,1,0.280,0.345,-0.425*
1,1,0.280,-0.345,-0.425*
1,1,0.280,-0.345,0.425*
1,1,0.280,0.345,0.425*
%
%ADD28ROUNDEDRECTD28*%
G04:AMPARAMS|DCode=29|XSize=1.79mm|YSize=2.22mm|CornerRadius=0.242mm|HoleSize=0mm|Usage=FLASHONLY|Rotation=90.000|XOffset=0mm|YOffset=0mm|HoleType=Round|Shape=RoundedRectangle|*
%AMROUNDEDRECTD29*
21,1,1.790,1.735,0,0,90.0*
21,1,1.305,2.220,0,0,90.0*
1,1,0.485,0.868,0.653*
1,1,0.485,0.868,-0.653*
1,1,0.485,-0.868,-0.653*
1,1,0.485,-0.868,0.653*
%
%ADD29ROUNDEDRECTD29*%
G04:AMPARAMS|DCode=30|XSize=0.73mm|YSize=2.22mm|CornerRadius=0.11mm|HoleSize=0mm|Usage=FLASHONLY|Rotation=0.000|XOffset=0mm|YOffset=0mm|HoleType=Round|Shape=RoundedRectangle|*
%AMROUNDEDRECTD30*
21,1,0.730,2.000,0,0,0.0*
21,1,0.510,2.220,0,0,0.0*
1,1,0.220,0.255,-1.000*
1,1,0.220,-0.255,-1.000*
1,1,0.220,-0.255,1.000*
1,1,0.220,0.255,1.000*
%
%ADD30ROUNDEDRECTD30*%
G04:AMPARAMS|DCode=31|XSize=1.58mm|YSize=1.07mm|CornerRadius=0.153mm|HoleSize=0mm|Usage=FLASHONLY|Rotation=90.000|XOffset=0mm|YOffset=0mm|HoleType=Round|Shape=RoundedRectangle|*
%AMROUNDEDRECTD31*
21,1,1.580,0.765,0,0,90.0*
21,1,1.275,1.070,0,0,90.0*
1,1,0.305,0.383,0.638*
1,1,0.305,0.383,-0.638*
1,1,0.305,-0.383,-0.638*
1,1,0.305,-0.383,0.638*
%
%ADD31ROUNDEDRECTD31*%
G04:AMPARAMS|DCode=32|XSize=0.97mm|YSize=1.13mm|CornerRadius=0.14mm|HoleSize=0mm|Usage=FLASHONLY|Rotation=270.000|XOffset=0mm|YOffset=0mm|HoleType=Round|Shape=RoundedRectangle|*
%AMROUNDEDRECTD32*
21,1,0.970,0.850,0,0,270.0*
21,1,0.690,1.130,0,0,270.0*
1,1,0.280,-0.425,-0.345*
1,1,0.280,-0.425,0.345*
1,1,0.280,0.425,0.345*
1,1,0.280,0.425,-0.345*
%
%ADD32ROUNDEDRECTD32*%
G04:AMPARAMS|DCode=33|XSize=1.31mm|YSize=0.63mm|CornerRadius=0.098mm|HoleSize=0mm|Usage=FLASHONLY|Rotation=180.000|XOffset=0mm|YOffset=0mm|HoleType=Round|Shape=RoundedRectangle|*
%AMROUNDEDRECTD33*
21,1,1.310,0.435,0,0,180.0*
21,1,1.115,0.630,0,0,180.0*
1,1,0.195,-0.558,0.217*
1,1,0.195,0.558,0.217*
1,1,0.195,0.558,-0.217*
1,1,0.195,-0.558,-0.217*
%
%ADD33ROUNDEDRECTD33*%
G04:AMPARAMS|DCode=34|XSize=1.26mm|YSize=1.51mm|CornerRadius=0.176mm|HoleSize=0mm|Usage=FLASHONLY|Rotation=270.000|XOffset=0mm|YOffset=0mm|HoleType=Round|Shape=RoundedRectangle|*
%AMROUNDEDRECTD34*
21,1,1.260,1.158,0,0,270.0*
21,1,0.907,1.510,0,0,270.0*
1,1,0.353,-0.579,-0.454*
1,1,0.353,-0.579,0.454*
1,1,0.353,0.579,0.454*
1,1,0.353,0.579,-0.454*
%
%ADD34ROUNDEDRECTD34*%
G04:AMPARAMS|DCode=35|XSize=1.45mm|YSize=3.05mm|CornerRadius=0.2mm|HoleSize=0mm|Usage=FLASHONLY|Rotation=180.000|XOffset=0mm|YOffset=0mm|HoleType=Round|Shape=RoundedRectangle|*
%AMROUNDEDRECTD35*
21,1,1.450,2.650,0,0,180.0*
21,1,1.050,3.050,0,0,180.0*
1,1,0.400,-0.525,1.325*
1,1,0.400,0.525,1.325*
1,1,0.400,0.525,-1.325*
1,1,0.400,-0.525,-1.325*
%
%ADD35ROUNDEDRECTD35*%
G04:AMPARAMS|DCode=36|XSize=5.85mm|YSize=2.15mm|CornerRadius=0.55mm|HoleSize=0mm|Usage=FLASHONLY|Rotation=180.000|XOffset=0mm|YOffset=0mm|HoleType=Round|Shape=RoundedRectangle|*
%AMROUNDEDRECTD36*
21,1,5.850,1.050,0,0,180.0*
21,1,4.750,2.150,0,0,180.0*
1,1,1.100,-2.375,0.525*
1,1,1.100,2.375,0.525*
1,1,1.100,2.375,-0.525*
1,1,1.100,-2.375,-0.525*
%
%ADD36ROUNDEDRECTD36*%
G04:AMPARAMS|DCode=37|XSize=0.43mm|YSize=1.09mm|CornerRadius=0.072mm|HoleSize=0mm|Usage=FLASHONLY|Rotation=180.000|XOffset=0mm|YOffset=0mm|HoleType=Round|Shape=RoundedRectangle|*
%AMROUNDEDRECTD37*
21,1,0.430,0.945,0,0,180.0*
21,1,0.285,1.090,0,0,180.0*
1,1,0.145,-0.142,0.472*
1,1,0.145,0.142,0.472*
1,1,0.145,0.142,-0.472*
1,1,0.145,-0.142,-0.472*
%
%ADD37ROUNDEDRECTD37*%
G04:AMPARAMS|DCode=38|XSize=1.33mm|YSize=1.92mm|CornerRadius=0.185mm|HoleSize=0mm|Usage=FLASHONLY|Rotation=90.000|XOffset=0mm|YOffset=0mm|HoleType=Round|Shape=RoundedRectangle|*
%AMROUNDEDRECTD38*
21,1,1.330,1.550,0,0,90.0*
21,1,0.960,1.920,0,0,90.0*
1,1,0.370,0.775,0.480*
1,1,0.370,0.775,-0.480*
1,1,0.370,-0.775,-0.480*
1,1,0.370,-0.775,0.480*
%
%ADD38ROUNDEDRECTD38*%
G04:AMPARAMS|DCode=39|XSize=1.26mm|YSize=1.51mm|CornerRadius=0.176mm|HoleSize=0mm|Usage=FLASHONLY|Rotation=0.000|XOffset=0mm|YOffset=0mm|HoleType=Round|Shape=RoundedRectangle|*
%AMROUNDEDRECTD39*
21,1,1.260,1.158,0,0,0.0*
21,1,0.907,1.510,0,0,0.0*
1,1,0.353,0.454,-0.579*
1,1,0.353,-0.454,-0.579*
1,1,0.353,-0.454,0.579*
1,1,0.353,0.454,0.579*
%
%ADD39ROUNDEDRECTD39*%
%ADD40C,1.950*%
%ADD41C,2.103*%
%ADD42C,1.750*%
%ADD43R,1.750X1.750*%
%ADD44C,1.100*%
%ADD45R,1.448X1.448*%
%ADD46C,1.448*%
%ADD47C,1.580*%
%ADD48C,2.495*%
%ADD49C,3.300*%
%ADD50C,2.150*%
%ADD51C,0.050*%
%ADD52C,3.050*%
%ADD53C,1.903*%
D18*
X11500Y22500D02*
D03*
X12900Y22500D02*
D03*
X16225Y21200D02*
D03*
X17225D02*
D03*
X10500Y22500D02*
D03*
X13900Y22500D02*
D03*
X22425Y31542D02*
D03*
X21425D02*
D03*
X10025Y30942D02*
D03*
X9025Y30942D02*
D03*
X10025Y32342D02*
D03*
X9025Y32342D02*
D03*
X27224Y33640D02*
D03*
X26224D02*
D03*
X10025Y29592D02*
D03*
X9025Y29592D02*
D03*
X10025Y28192D02*
D03*
X9025D02*
D03*
X10025Y26892D02*
D03*
X9025D02*
D03*
D19*
X17295Y23466D02*
D03*
X17295Y22441D02*
D03*
X13995Y23725D02*
D03*
X13995Y24750D02*
D03*
X10843Y24592D02*
D03*
X10843Y25617D02*
D03*
X5500Y30357D02*
D03*
X5500Y31382D02*
D03*
X25025Y31375D02*
D03*
X25025Y32400D02*
D03*
D20*
X47300Y15400D02*
D03*
Y14400D02*
D03*
Y11962D02*
D03*
Y12962D02*
D03*
X26224Y31384D02*
D03*
Y32384D02*
D03*
X21450Y29121D02*
D03*
X21450Y30121D02*
D03*
X4575Y34550D02*
D03*
X4575Y33550D02*
D03*
D21*
X45700Y10000D02*
D03*
X44100Y10000D02*
D03*
X45700Y14933D02*
D03*
X44100Y14933D02*
D03*
X43230Y33900D02*
D03*
X41630Y33900D02*
D03*
X36671Y29725D02*
D03*
X35071Y29725D02*
D03*
X36471Y37050D02*
D03*
X34871Y37050D02*
D03*
D22*
X45895Y12149D02*
D03*
X45895Y12799D02*
D03*
X45895Y13449D02*
D03*
X45895Y11499D02*
D03*
X43955Y12149D02*
D03*
X43955Y12799D02*
D03*
X43955Y13449D02*
D03*
X43955Y11499D02*
D03*
D23*
X26724Y25100D02*
D03*
X25699Y25100D02*
D03*
X9402Y22480D02*
D03*
X8377Y22480D02*
D03*
D24*
X10175Y35692D02*
D03*
X7325D02*
D03*
D25*
X29449Y32092D02*
D03*
Y34942D02*
D03*
X29450Y26675D02*
D03*
Y29525D02*
D03*
D26*
X33160Y29723D02*
D03*
X31640D02*
D03*
X33160Y31709D02*
D03*
X31640Y31709D02*
D03*
D27*
X34466Y42066D02*
D03*
Y43666D02*
D03*
X41086Y21213D02*
D03*
Y22813D02*
D03*
D28*
X5250Y25250D02*
D03*
X6850Y25250D02*
D03*
D29*
X36129Y10720D02*
D03*
X39889Y10720D02*
D03*
D30*
X41960Y26100D02*
D03*
X43230D02*
D03*
X44500Y26100D02*
D03*
X45770Y26100D02*
D03*
X41960Y30960D02*
D03*
X43230Y30960D02*
D03*
X44500Y30960D02*
D03*
X45770Y30960D02*
D03*
D31*
X44900Y23375D02*
D03*
X42885Y23375D02*
D03*
D32*
X38414Y27355D02*
D03*
X38414Y25755D02*
D03*
X38414Y30900D02*
D03*
X38414Y29300D02*
D03*
D33*
X45270Y33900D02*
D03*
X47330Y33900D02*
D03*
D34*
X5500Y28867D02*
D03*
X5500Y27177D02*
D03*
D35*
X29388Y22350D02*
D03*
X31188Y22350D02*
D03*
X31188Y17450D02*
D03*
X29388Y17450D02*
D03*
D36*
X44080Y40215D02*
D03*
X44080Y36315D02*
D03*
D37*
X34808Y31270D02*
D03*
X35459Y31270D02*
D03*
X36109Y31270D02*
D03*
X36759Y31270D02*
D03*
X34808Y35510D02*
D03*
X35459Y35510D02*
D03*
X36109Y35510D02*
D03*
X36759D02*
D03*
D38*
X38863Y23472D02*
D03*
Y20472D02*
D03*
D39*
X46349Y20525D02*
D03*
X48039Y20525D02*
D03*
D40*
X36177Y14000D02*
D03*
X31500D02*
D03*
X36177Y20750D02*
D03*
X37127Y40215D02*
D03*
D41*
X36177Y16500D02*
D03*
X29000Y14000D02*
D03*
X36177Y23250D02*
D03*
X39627Y40215D02*
D03*
D42*
X32250Y46800D02*
D03*
X32095Y36105D02*
D03*
Y38645D02*
D03*
Y41185D02*
D03*
X2555Y41175D02*
D03*
Y38635D02*
D03*
Y36095D02*
D03*
Y33555D02*
D03*
D43*
X34790Y46800D02*
D03*
D44*
X19750Y45344D02*
D03*
X22250D02*
D03*
X21000D02*
D03*
X17250D02*
D03*
X18500D02*
D03*
D45*
X13415Y15970D02*
D03*
D46*
X14685Y18510D02*
D03*
X15955Y15970D02*
D03*
X17225Y18510D02*
D03*
X18495Y15970D02*
D03*
X19765Y18510D02*
D03*
X21035Y15970D02*
D03*
X22305Y18510D02*
D03*
D47*
X11240Y4720D02*
D03*
X13780D02*
D03*
X24490D02*
D03*
X21950D02*
D03*
D48*
X10120Y12670D02*
D03*
X25610D02*
D03*
D49*
X23580Y9620D02*
D03*
X12150D02*
D03*
D50*
X30250Y10720D02*
D03*
X33250D02*
D03*
X30250Y7720D02*
D03*
X33250D02*
D03*
D51*
X31750Y3400D02*
D03*
D52*
X47550Y2550D02*
D03*
X2550D02*
D03*
X47550Y47550D02*
D03*
X2550D02*
D03*
D53*
X32095Y43725D02*
D03*
X2555Y43715D02*
D03*
M02*
