G04*
G04 #@! TF.GenerationSoftware,Altium Limited,Altium Designer,22.7.1 (60)*
G04*
G04 Layer_Physical_Order=2*
G04 Layer_Color=1930808*
%FSLAX43Y43*%
%MOMM*%
G71*
G04*
G04 #@! TF.SameCoordinates,954B6AC0-D961-4D12-9847-DB1D38B5DF19*
G04*
G04*
G04 #@! TF.FilePolarity,Positive*
G04*
G01*
G75*
%ADD55C,0.500*%
%ADD86C,1.530*%
%ADD91C,0.700*%
%ADD93C,0.900*%
G36*
X31081Y46487D02*
X31202Y46195D01*
X31394Y45944D01*
X31645Y45752D01*
X31936Y45631D01*
X32250Y45590D01*
Y45067D01*
X32099Y44935D01*
X32095Y44935D01*
X31782Y44894D01*
X31490Y44773D01*
X31239Y44581D01*
X31047Y44330D01*
X30926Y44038D01*
X30885Y43725D01*
X30926Y43412D01*
X31047Y43120D01*
X31239Y42869D01*
X31490Y42677D01*
X31782Y42556D01*
X31782Y42556D01*
Y42354D01*
X31782Y42354D01*
X31490Y42233D01*
X31239Y42041D01*
X31047Y41790D01*
X30926Y41498D01*
X30900Y41300D01*
X30894Y41291D01*
X30698Y41179D01*
X30692Y41179D01*
X30624Y41207D01*
X30442Y41231D01*
X30259Y41207D01*
X30089Y41136D01*
X29942Y41024D01*
X29830Y40878D01*
X29760Y40708D01*
X29736Y40525D01*
X29760Y40342D01*
X29830Y40172D01*
X29942Y40026D01*
X30089Y39914D01*
X30259Y39843D01*
X30442Y39819D01*
X30624Y39843D01*
X30795Y39914D01*
X30941Y40026D01*
X31053Y40172D01*
X31072Y40218D01*
X31106Y40241D01*
X31308Y40276D01*
X31490Y40137D01*
X31782Y40016D01*
X31782Y40016D01*
Y39814D01*
X31782Y39814D01*
X31490Y39693D01*
X31239Y39501D01*
X31047Y39250D01*
X30926Y38958D01*
X30885Y38645D01*
X30926Y38332D01*
X31047Y38040D01*
X31239Y37789D01*
X31490Y37597D01*
X31782Y37476D01*
X31782Y37476D01*
Y37274D01*
X31782Y37274D01*
X31490Y37153D01*
X31239Y36961D01*
X31047Y36710D01*
X30926Y36418D01*
X30885Y36105D01*
X30926Y35792D01*
X31047Y35500D01*
X31239Y35249D01*
X31490Y35057D01*
X31782Y34936D01*
X32060Y34899D01*
X32095Y34895D01*
X32250Y34915D01*
Y34915D01*
X32502D01*
X32515Y34817D01*
X32586Y34647D01*
X32698Y34501D01*
X32844Y34389D01*
X33015Y34318D01*
X33197Y34294D01*
X33380Y34318D01*
X33550Y34389D01*
X33697Y34501D01*
X33809Y34647D01*
X33879Y34817D01*
X33892Y34915D01*
X37560Y34915D01*
X37672Y34915D01*
X37893Y34871D01*
X38100Y34785D01*
X38287Y34660D01*
X38445Y34502D01*
X38570Y34315D01*
X38656Y34107D01*
X38685Y33961D01*
X38700Y33777D01*
Y33775D01*
X38700Y33775D01*
X38700Y33775D01*
X38700Y25920D01*
X38705Y25820D01*
X38744Y25623D01*
X38746Y25617D01*
X38758Y25533D01*
X38843Y25326D01*
X38979Y25149D01*
X39157Y25013D01*
X39364Y24927D01*
X39586Y24898D01*
X39628Y24903D01*
X39721Y24899D01*
X46601Y24899D01*
X46690Y24899D01*
X46863Y24864D01*
X47027Y24796D01*
X47174Y24698D01*
X47299Y24573D01*
X47398Y24426D01*
X47465Y24262D01*
X47481Y24185D01*
X47500Y24001D01*
Y24000D01*
X47500Y24000D01*
X47500Y24000D01*
X47500Y10317D01*
X47300Y10277D01*
X47260Y10372D01*
X47148Y10519D01*
X47002Y10631D01*
X46832Y10701D01*
X46649Y10725D01*
X46466Y10701D01*
X46296Y10631D01*
X46150Y10519D01*
X46038Y10372D01*
X45967Y10202D01*
X45943Y10019D01*
X45967Y9837D01*
X46038Y9666D01*
X46150Y9520D01*
X46296Y9408D01*
X46466Y9337D01*
X46649Y9313D01*
X46832Y9337D01*
X47002Y9408D01*
X47148Y9520D01*
X47260Y9666D01*
X47300Y9762D01*
X47500Y9722D01*
Y9500D01*
X47500Y9411D01*
X47465Y9237D01*
X47398Y9074D01*
X47299Y8926D01*
X47174Y8801D01*
X47026Y8702D01*
X46862Y8635D01*
X46792Y8620D01*
X46600Y8600D01*
X46600Y8600D01*
X44301Y8600D01*
X44147Y8600D01*
X43841Y8630D01*
X43540Y8690D01*
X43245Y8779D01*
X42961Y8897D01*
X42690Y9042D01*
X42435Y9213D01*
X42229Y9381D01*
X42088Y9517D01*
X42088D01*
X38238Y13367D01*
X38035Y13570D01*
X37670Y14014D01*
X37427Y14378D01*
X37312Y14656D01*
X37152Y14864D01*
X37081Y14998D01*
X36906Y15421D01*
X37104Y15573D01*
X37312Y15844D01*
X37443Y16161D01*
X37488Y16500D01*
X37443Y16839D01*
X37312Y17156D01*
X37104Y17427D01*
X36832Y17636D01*
X36526Y17762D01*
X36526Y19488D01*
X36832Y19614D01*
X37104Y19823D01*
X37312Y20094D01*
X37443Y20411D01*
X37488Y20750D01*
X37443Y21089D01*
X37312Y21406D01*
X37104Y21677D01*
X36832Y21886D01*
X36797Y21900D01*
Y22100D01*
X36832Y22114D01*
X37104Y22323D01*
X37312Y22594D01*
X37443Y22911D01*
X37488Y23250D01*
X37443Y23589D01*
X37312Y23906D01*
X37104Y24177D01*
X36832Y24386D01*
X36516Y24517D01*
X36177Y24561D01*
X35837Y24517D01*
X35521Y24386D01*
X35249Y24177D01*
X35068Y23940D01*
X34843Y23882D01*
X34677Y24048D01*
X34547Y24178D01*
X34313Y24464D01*
X34107Y24771D01*
X33933Y25096D01*
X33792Y25437D01*
X33685Y25791D01*
X33613Y26153D01*
X33577Y26520D01*
Y26705D01*
X33577Y29798D01*
X33572Y29901D01*
X33531Y30104D01*
X33453Y30294D01*
X33338Y30466D01*
X33192Y30611D01*
X33021Y30726D01*
X32830Y30805D01*
X32720Y30827D01*
X32710Y30829D01*
X32710Y30829D01*
X32628Y30845D01*
X32527Y30850D01*
X32525Y30850D01*
X32525Y30850D01*
X32329Y30850D01*
X31650D01*
X31637Y30851D01*
X31626Y30850D01*
X31618D01*
X31604Y30853D01*
X31604D01*
X31604Y30853D01*
X26017Y30853D01*
X25927Y30853D01*
X25912Y30850D01*
X24900D01*
Y30727D01*
X24717Y30703D01*
X24547Y30633D01*
X24401Y30521D01*
X24289Y30374D01*
X24218Y30204D01*
X24194Y30021D01*
X24217Y29850D01*
X24216Y29836D01*
X24080Y29650D01*
X23062Y29650D01*
X22998Y29647D01*
X22870Y29621D01*
X22750Y29572D01*
X22642Y29500D01*
X22550Y29408D01*
X22478Y29300D01*
X22428Y29180D01*
X22403Y29052D01*
X22400Y28988D01*
X22400D01*
X22400Y28987D01*
Y28746D01*
X22394Y28700D01*
X22400Y28654D01*
X22400Y27711D01*
X22394Y27665D01*
X22400Y27619D01*
X22400Y26572D01*
X22372Y26432D01*
X22318Y26300D01*
X22239Y26182D01*
X22138Y26081D01*
X22019Y26002D01*
X21888Y25948D01*
X21748Y25920D01*
X21677Y25920D01*
X14975Y25920D01*
X14899Y26019D01*
X14753Y26131D01*
X14583Y26201D01*
X14400Y26225D01*
X14217Y26201D01*
X14047Y26131D01*
X13901Y26019D01*
X13825Y25920D01*
X13116D01*
X12960Y25951D01*
X12812Y26012D01*
X12680Y26101D01*
X12567Y26213D01*
X12478Y26346D01*
X12417Y26493D01*
X12386Y26650D01*
Y26730D01*
X12386Y26730D01*
X12386Y31206D01*
X12381Y31318D01*
X12337Y31538D01*
X12251Y31745D01*
X12127Y31932D01*
X11968Y32090D01*
X11781Y32215D01*
X11574Y32301D01*
X11426Y32330D01*
X11354Y32344D01*
X11242Y32350D01*
X11242Y32350D01*
X11242Y32350D01*
X11242Y32350D01*
X4750Y32350D01*
X4656Y32350D01*
X4473Y32386D01*
X4300Y32458D01*
X4144Y32562D01*
X4012Y32694D01*
X3908Y32850D01*
X3836Y33023D01*
X3800Y33206D01*
X3800Y33300D01*
X3800Y44500D01*
Y44707D01*
X3881Y45113D01*
X4039Y45495D01*
X4269Y45839D01*
X4561Y46131D01*
X4905Y46361D01*
X5287Y46519D01*
X5693Y46600D01*
X5900Y46600D01*
X5900Y46600D01*
X31066Y46600D01*
X31081Y46487D01*
D02*
G37*
G36*
X2999Y31000D02*
X4967Y31000D01*
X4967Y31000D01*
X4967Y31000D01*
X4967D01*
X5152Y30981D01*
X5232Y30965D01*
X5397Y30897D01*
X5546Y30797D01*
X5672Y30671D01*
X5772Y30522D01*
X5840Y30357D01*
X5875Y30182D01*
X5875Y30092D01*
X5875Y26425D01*
X5875Y26425D01*
X5879Y26338D01*
X5913Y26169D01*
X5979Y26009D01*
X6075Y25865D01*
X6198Y25742D01*
X6342Y25646D01*
X6502Y25580D01*
X6671Y25546D01*
X6758Y25542D01*
X13674Y25542D01*
X13694Y25519D01*
X13718Y25337D01*
X13789Y25166D01*
X13901Y25020D01*
X14047Y24908D01*
X14150Y24865D01*
X14134Y24750D01*
X14158Y24567D01*
X14229Y24397D01*
X14341Y24251D01*
X14487Y24139D01*
X14658Y24068D01*
X14840Y24044D01*
X15023Y24068D01*
X15193Y24139D01*
X15340Y24251D01*
X15452Y24397D01*
X15522Y24567D01*
X15546Y24750D01*
X15522Y24933D01*
X15452Y25103D01*
X15340Y25249D01*
X15219Y25342D01*
X15225Y25433D01*
X15274Y25542D01*
X24096Y25542D01*
X24222Y25342D01*
X24198Y25283D01*
X24174Y25100D01*
X24198Y24917D01*
X24268Y24747D01*
X24380Y24601D01*
X24527Y24489D01*
X24697Y24418D01*
X24880Y24394D01*
X25062Y24418D01*
X25233Y24489D01*
X25379Y24601D01*
X25491Y24747D01*
X25562Y24917D01*
X25586Y25100D01*
X25562Y25283D01*
X25491Y25453D01*
X25379Y25599D01*
X25233Y25711D01*
X25096Y25768D01*
X25031Y25888D01*
X25001Y25987D01*
X25064Y26139D01*
X25096Y26301D01*
X25100Y26383D01*
X25100Y29347D01*
X25253Y29410D01*
X25399Y29522D01*
X25511Y29668D01*
X25582Y29839D01*
X25606Y30021D01*
X25582Y30204D01*
X25581Y30207D01*
X25695Y30438D01*
X25750Y30461D01*
X25927Y30496D01*
X26017Y30496D01*
X31604Y30496D01*
X31604Y30496D01*
X31604Y30496D01*
X31604D01*
X31791Y30479D01*
X31903Y30456D01*
X32089Y30379D01*
X32257Y30267D01*
X32399Y30125D01*
X32512Y29957D01*
X32589Y29771D01*
X32628Y29573D01*
Y28819D01*
X32500Y28707D01*
X32278Y28678D01*
X32071Y28592D01*
X31958Y28505D01*
X31844Y28592D01*
X31637Y28678D01*
X31415Y28707D01*
X31193Y28678D01*
X30987Y28592D01*
X30809Y28456D01*
X30673Y28278D01*
X30587Y28071D01*
X30558Y27849D01*
X30587Y27628D01*
X30673Y27421D01*
X30739Y27335D01*
X30658Y27229D01*
X30572Y27022D01*
X30543Y26800D01*
X30572Y26578D01*
X30658Y26371D01*
X30794Y26194D01*
X30971Y26058D01*
X31178Y25972D01*
X31400Y25943D01*
X31622Y25972D01*
X31829Y26058D01*
X31942Y26145D01*
X32056Y26058D01*
X32263Y25972D01*
X32485Y25943D01*
X32628Y25817D01*
X32628Y15328D01*
X32628Y15328D01*
X32628Y15158D01*
X32602Y15028D01*
X32537Y14990D01*
X32385Y14960D01*
X32156Y15136D01*
X31839Y15267D01*
X31500Y15311D01*
X31161Y15267D01*
X30844Y15136D01*
X30573Y14927D01*
X30364Y14656D01*
X30350Y14621D01*
X30150D01*
X30136Y14656D01*
X29927Y14927D01*
X29656Y15136D01*
X29339Y15267D01*
X29000Y15311D01*
X28661Y15267D01*
X28344Y15136D01*
X28073Y14927D01*
X27864Y14656D01*
X27733Y14339D01*
X27689Y14000D01*
X27715Y13800D01*
X27555Y13600D01*
X26881D01*
X26727Y13787D01*
X26488Y13984D01*
X26215Y14130D01*
X25918Y14220D01*
X25610Y14250D01*
X25302Y14220D01*
X25005Y14130D01*
X24732Y13984D01*
X24493Y13787D01*
X24339Y13600D01*
X11391Y13600D01*
X11237Y13787D01*
X10998Y13984D01*
X10725Y14130D01*
X10428Y14220D01*
X10120Y14250D01*
X9812Y14220D01*
X9515Y14130D01*
X9242Y13984D01*
X9003Y13787D01*
X8849Y13600D01*
X4345Y13600D01*
X4203Y13600D01*
X3923Y13656D01*
X3661Y13764D01*
X3424Y13923D01*
X3223Y14124D01*
X3064Y14361D01*
X2956Y14623D01*
X2900Y14903D01*
X2900Y15045D01*
Y17395D01*
X3087Y17504D01*
X3257Y17434D01*
X3440Y17409D01*
X3623Y17434D01*
X3793Y17504D01*
X3939Y17616D01*
X4051Y17762D01*
X4122Y17933D01*
X4146Y18115D01*
X4122Y18298D01*
X4051Y18468D01*
X3939Y18615D01*
X3793Y18727D01*
X3623Y18797D01*
X3440Y18822D01*
X3257Y18797D01*
X3087Y18727D01*
X2900Y18836D01*
Y23300D01*
Y24692D01*
X3100Y24825D01*
X3117Y24818D01*
X3300Y24794D01*
X3483Y24818D01*
X3653Y24889D01*
X3799Y25001D01*
X3911Y25147D01*
X3982Y25317D01*
X4006Y25500D01*
X3982Y25683D01*
X3911Y25853D01*
X3799Y25999D01*
X3653Y26111D01*
X3483Y26182D01*
X3300Y26206D01*
X3117Y26182D01*
X3074Y26164D01*
X2900Y26100D01*
X2820Y26100D01*
X2673Y26161D01*
X2561Y26273D01*
X2500Y26420D01*
X2500Y26500D01*
Y30501D01*
X2500Y30600D01*
X2576Y30784D01*
X2716Y30924D01*
X2900Y31000D01*
X2999Y31000D01*
D02*
G37*
%LPC*%
G36*
X22250Y46252D02*
X22015Y46221D01*
X21796Y46130D01*
X21625Y45999D01*
X21454Y46130D01*
X21235Y46221D01*
X21000Y46252D01*
X20765Y46221D01*
X20546Y46130D01*
X20375Y45999D01*
X20204Y46130D01*
X19985Y46221D01*
X19750Y46252D01*
X19515Y46221D01*
X19296Y46130D01*
X19125Y45999D01*
X18954Y46130D01*
X18735Y46221D01*
X18500Y46252D01*
X18265Y46221D01*
X18046Y46130D01*
X17875Y45999D01*
X17704Y46130D01*
X17485Y46221D01*
X17250Y46252D01*
X17015Y46221D01*
X16796Y46130D01*
X16608Y45986D01*
X16464Y45798D01*
X16373Y45579D01*
X16342Y45344D01*
X16373Y45109D01*
X16464Y44890D01*
X16608Y44702D01*
X16796Y44558D01*
X17015Y44467D01*
X17250Y44436D01*
X17485Y44467D01*
X17704Y44558D01*
X17875Y44689D01*
X18046Y44558D01*
X18265Y44467D01*
X18500Y44436D01*
X18735Y44467D01*
X18954Y44558D01*
X19125Y44689D01*
X19296Y44558D01*
X19515Y44467D01*
X19750Y44436D01*
X19985Y44467D01*
X20204Y44558D01*
X20375Y44689D01*
X20546Y44558D01*
X20765Y44467D01*
X21000Y44436D01*
X21235Y44467D01*
X21454Y44558D01*
X21625Y44689D01*
X21796Y44558D01*
X22015Y44467D01*
X22250Y44436D01*
X22485Y44467D01*
X22704Y44558D01*
X22892Y44702D01*
X23036Y44890D01*
X23127Y45109D01*
X23158Y45344D01*
X23127Y45579D01*
X23036Y45798D01*
X22892Y45986D01*
X22704Y46130D01*
X22485Y46221D01*
X22250Y46252D01*
D02*
G37*
G36*
X27699Y44163D02*
X27516Y44139D01*
X27346Y44069D01*
X27199Y43956D01*
X27087Y43810D01*
X27017Y43640D01*
X26993Y43457D01*
X27017Y43274D01*
X27087Y43104D01*
X27199Y42958D01*
X27346Y42846D01*
X27516Y42775D01*
X27699Y42751D01*
X27881Y42775D01*
X28052Y42846D01*
X28198Y42958D01*
X28310Y43104D01*
X28381Y43274D01*
X28405Y43457D01*
X28381Y43640D01*
X28310Y43810D01*
X28198Y43956D01*
X28052Y44069D01*
X27881Y44139D01*
X27699Y44163D01*
D02*
G37*
G36*
X7975Y41611D02*
X7792Y41587D01*
X7622Y41516D01*
X7476Y41404D01*
X7364Y41258D01*
X7293Y41088D01*
X7269Y40905D01*
X7293Y40722D01*
X7364Y40552D01*
X7476Y40406D01*
X7622Y40293D01*
X7792Y40223D01*
X7975Y40199D01*
X8158Y40223D01*
X8328Y40293D01*
X8474Y40406D01*
X8586Y40552D01*
X8657Y40722D01*
X8681Y40905D01*
X8657Y41088D01*
X8586Y41258D01*
X8474Y41404D01*
X8328Y41516D01*
X8158Y41587D01*
X7975Y41611D01*
D02*
G37*
G36*
X19975Y40681D02*
X19792Y40657D01*
X19622Y40586D01*
X19476Y40474D01*
X19364Y40328D01*
X19293Y40158D01*
X19269Y39975D01*
X19293Y39792D01*
X19364Y39622D01*
X19476Y39476D01*
X19622Y39364D01*
X19792Y39293D01*
X19975Y39269D01*
X20158Y39293D01*
X20328Y39364D01*
X20474Y39476D01*
X20586Y39622D01*
X20657Y39792D01*
X20681Y39975D01*
X20657Y40158D01*
X20586Y40328D01*
X20474Y40474D01*
X20328Y40586D01*
X20158Y40657D01*
X19975Y40681D01*
D02*
G37*
G36*
X14261Y40096D02*
X14039Y40067D01*
X13833Y39981D01*
X13655Y39845D01*
X13519Y39667D01*
X13433Y39461D01*
X13404Y39239D01*
X13433Y39017D01*
X13519Y38810D01*
X13655Y38633D01*
X13833Y38496D01*
X14039Y38411D01*
X14261Y38381D01*
X14483Y38411D01*
X14690Y38496D01*
X14867Y38633D01*
X15004Y38810D01*
X15089Y39017D01*
X15119Y39239D01*
X15089Y39461D01*
X15004Y39667D01*
X14867Y39845D01*
X14690Y39981D01*
X14483Y40067D01*
X14261Y40096D01*
D02*
G37*
G36*
X7881Y38156D02*
X7699Y38132D01*
X7528Y38061D01*
X7382Y37949D01*
X7350Y37907D01*
X7107D01*
X7074Y37949D01*
X6928Y38061D01*
X6758Y38132D01*
X6575Y38156D01*
X6392Y38132D01*
X6222Y38061D01*
X6076Y37949D01*
X5998Y37848D01*
X5917Y37829D01*
X5846D01*
X5766Y37848D01*
X5687Y37949D01*
X5541Y38061D01*
X5371Y38132D01*
X5188Y38156D01*
X5005Y38132D01*
X4835Y38061D01*
X4689Y37949D01*
X4577Y37803D01*
X4506Y37633D01*
X4482Y37450D01*
X4506Y37267D01*
X4577Y37097D01*
X4689Y36951D01*
X4835Y36839D01*
X5005Y36768D01*
X5188Y36744D01*
X5371Y36768D01*
X5541Y36839D01*
X5687Y36951D01*
X5766Y37053D01*
X5846Y37071D01*
X5917D01*
X5998Y37053D01*
X6076Y36951D01*
X6222Y36839D01*
X6392Y36768D01*
X6575Y36744D01*
X6758Y36768D01*
X6928Y36839D01*
X7074Y36951D01*
X7107Y36993D01*
X7350D01*
X7382Y36951D01*
X7528Y36839D01*
X7699Y36768D01*
X7881Y36744D01*
X7917Y36749D01*
X8031Y36630D01*
X8065Y36566D01*
X8044Y36409D01*
X8068Y36226D01*
X8139Y36056D01*
X8251Y35909D01*
X8397Y35797D01*
X8567Y35727D01*
X8750Y35703D01*
X8933Y35727D01*
X9103Y35797D01*
X9249Y35909D01*
X9361Y36056D01*
X9432Y36226D01*
X9456Y36409D01*
X9432Y36591D01*
X9361Y36762D01*
X9249Y36908D01*
X9103Y37020D01*
X8933Y37091D01*
X8750Y37115D01*
X8715Y37110D01*
X8601Y37229D01*
X8567Y37292D01*
X8587Y37450D01*
X8563Y37633D01*
X8493Y37803D01*
X8381Y37949D01*
X8234Y38061D01*
X8064Y38132D01*
X7881Y38156D01*
D02*
G37*
G36*
X27199Y39181D02*
X27016Y39157D01*
X26846Y39086D01*
X26699Y38974D01*
X26587Y38828D01*
X26517Y38658D01*
X26493Y38475D01*
X26517Y38292D01*
X26587Y38122D01*
X26699Y37976D01*
X26846Y37864D01*
X27016Y37793D01*
X27199Y37769D01*
X27381Y37793D01*
X27552Y37864D01*
X27698Y37976D01*
X27810Y38122D01*
X27881Y38292D01*
X27905Y38475D01*
X27881Y38658D01*
X27810Y38828D01*
X27698Y38974D01*
X27552Y39086D01*
X27381Y39157D01*
X27199Y39181D01*
D02*
G37*
G36*
X22357Y38840D02*
X22175Y38816D01*
X22004Y38745D01*
X21858Y38633D01*
X21746Y38487D01*
X21675Y38316D01*
X21651Y38134D01*
X21675Y37951D01*
X21746Y37781D01*
X21858Y37634D01*
X22004Y37522D01*
X22175Y37452D01*
X22357Y37428D01*
X22540Y37452D01*
X22710Y37522D01*
X22857Y37634D01*
X22969Y37781D01*
X23039Y37951D01*
X23063Y38134D01*
X23039Y38316D01*
X22969Y38487D01*
X22857Y38633D01*
X22710Y38745D01*
X22540Y38816D01*
X22357Y38840D01*
D02*
G37*
G36*
X12100Y38457D02*
X11878Y38428D01*
X11671Y38342D01*
X11494Y38206D01*
X11358Y38029D01*
X11272Y37822D01*
X11243Y37600D01*
X11272Y37378D01*
X11358Y37171D01*
X11494Y36994D01*
X11671Y36858D01*
X11878Y36772D01*
X12100Y36743D01*
X12322Y36772D01*
X12529Y36858D01*
X12706Y36994D01*
X12842Y37171D01*
X12928Y37378D01*
X12957Y37600D01*
X12928Y37822D01*
X12842Y38029D01*
X12706Y38206D01*
X12529Y38342D01*
X12322Y38428D01*
X12100Y38457D01*
D02*
G37*
G36*
X19175Y36423D02*
X18992Y36399D01*
X18822Y36328D01*
X18676Y36216D01*
X18564Y36070D01*
X18493Y35900D01*
X18469Y35717D01*
X18493Y35534D01*
X18564Y35364D01*
X18657Y35242D01*
X18589Y35153D01*
X18518Y34983D01*
X18494Y34800D01*
X18518Y34617D01*
X18589Y34447D01*
X18701Y34301D01*
X18847Y34189D01*
X19017Y34118D01*
X19200Y34094D01*
X19383Y34118D01*
X19553Y34189D01*
X19699Y34301D01*
X19811Y34447D01*
X19882Y34617D01*
X19906Y34800D01*
X19882Y34983D01*
X19811Y35153D01*
X19718Y35275D01*
X19786Y35364D01*
X19857Y35534D01*
X19881Y35717D01*
X19857Y35900D01*
X19786Y36070D01*
X19674Y36216D01*
X19528Y36328D01*
X19358Y36399D01*
X19175Y36423D01*
D02*
G37*
G36*
X25000Y34148D02*
X24817Y34124D01*
X24647Y34054D01*
X24599Y34017D01*
X24552Y34054D01*
X24381Y34124D01*
X24199Y34148D01*
X24016Y34124D01*
X23846Y34054D01*
X23699Y33941D01*
X23587Y33795D01*
X23557Y33722D01*
X23340D01*
X23310Y33795D01*
X23198Y33941D01*
X23052Y34054D01*
X22881Y34124D01*
X22699Y34148D01*
X22516Y34124D01*
X22346Y34054D01*
X22199Y33941D01*
X22087Y33795D01*
X22017Y33625D01*
X21993Y33442D01*
X22017Y33259D01*
X22087Y33089D01*
X22199Y32943D01*
X22346Y32831D01*
X22516Y32760D01*
X22699Y32736D01*
X22881Y32760D01*
X23052Y32831D01*
X23198Y32943D01*
X23310Y33089D01*
X23340Y33162D01*
X23557D01*
X23587Y33089D01*
X23699Y32943D01*
X23846Y32831D01*
X24016Y32760D01*
X24199Y32736D01*
X24381Y32760D01*
X24552Y32831D01*
X24599Y32867D01*
X24647Y32831D01*
X24817Y32760D01*
X25000Y32736D01*
X25183Y32760D01*
X25353Y32831D01*
X25499Y32943D01*
X25611Y33089D01*
X25682Y33259D01*
X25706Y33442D01*
X25682Y33625D01*
X25611Y33795D01*
X25499Y33941D01*
X25353Y34054D01*
X25183Y34124D01*
X25000Y34148D01*
D02*
G37*
G36*
X27225Y36483D02*
X27016Y36455D01*
X26822Y36375D01*
X26654Y36247D01*
X26526Y36079D01*
X26446Y35885D01*
X26418Y35676D01*
X26446Y35467D01*
X26526Y35273D01*
X26654Y35105D01*
X26682Y35084D01*
X26614Y34995D01*
X26543Y34825D01*
X26519Y34642D01*
X26543Y34459D01*
X26614Y34289D01*
X26726Y34143D01*
X26872Y34031D01*
X27042Y33960D01*
X27225Y33936D01*
X27408Y33960D01*
X27578Y34031D01*
X27724Y34143D01*
X27836Y34289D01*
X27907Y34459D01*
X27931Y34642D01*
X27907Y34825D01*
X27836Y34995D01*
X27768Y35084D01*
X27796Y35105D01*
X27924Y35273D01*
X28004Y35467D01*
X28032Y35676D01*
X28004Y35885D01*
X27924Y36079D01*
X27796Y36247D01*
X27628Y36375D01*
X27434Y36455D01*
X27225Y36483D01*
D02*
G37*
G36*
X5613Y34531D02*
X5430Y34507D01*
X5260Y34436D01*
X5114Y34324D01*
X5002Y34178D01*
X4931Y34008D01*
X4907Y33825D01*
X4931Y33642D01*
X5002Y33472D01*
X5114Y33326D01*
X5260Y33214D01*
X5430Y33143D01*
X5613Y33119D01*
X5796Y33143D01*
X5966Y33214D01*
X6112Y33326D01*
X6225Y33472D01*
X6295Y33642D01*
X6319Y33825D01*
X6295Y34008D01*
X6225Y34178D01*
X6112Y34324D01*
X5966Y34436D01*
X5796Y34507D01*
X5613Y34531D01*
D02*
G37*
G36*
X12600Y34006D02*
X12417Y33982D01*
X12247Y33911D01*
X12101Y33799D01*
X11989Y33653D01*
X11918Y33483D01*
X11894Y33300D01*
X11918Y33117D01*
X11989Y32947D01*
X12101Y32801D01*
X12247Y32689D01*
X12417Y32618D01*
X12600Y32594D01*
X12783Y32618D01*
X12953Y32689D01*
X13099Y32801D01*
X13211Y32947D01*
X13282Y33117D01*
X13306Y33300D01*
X13282Y33483D01*
X13211Y33653D01*
X13099Y33799D01*
X12953Y33911D01*
X12783Y33982D01*
X12600Y34006D01*
D02*
G37*
G36*
X36759Y33276D02*
X36576Y33252D01*
X36406Y33181D01*
X36259Y33069D01*
X36147Y32923D01*
X36077Y32753D01*
X36052Y32570D01*
X36077Y32387D01*
X36147Y32217D01*
X36259Y32071D01*
X36406Y31958D01*
X36576Y31888D01*
X36759Y31864D01*
X36941Y31888D01*
X37112Y31958D01*
X37258Y32071D01*
X37370Y32217D01*
X37441Y32387D01*
X37465Y32570D01*
X37441Y32753D01*
X37370Y32923D01*
X37258Y33069D01*
X37112Y33181D01*
X36941Y33252D01*
X36759Y33276D01*
D02*
G37*
G36*
X18700Y33606D02*
X18517Y33582D01*
X18347Y33511D01*
X18201Y33399D01*
X18089Y33253D01*
X18018Y33083D01*
X17994Y32900D01*
X18018Y32717D01*
X18089Y32547D01*
X18201Y32401D01*
X18347Y32288D01*
X18378Y32276D01*
X18408Y32047D01*
X18401Y32041D01*
X18289Y31895D01*
X18218Y31725D01*
X18199Y31582D01*
X18100Y31595D01*
X17917Y31571D01*
X17747Y31500D01*
X17601Y31388D01*
X17489Y31242D01*
X17418Y31071D01*
X17394Y30889D01*
X17418Y30706D01*
X17489Y30536D01*
X17601Y30389D01*
X17747Y30277D01*
X17917Y30207D01*
X18100Y30183D01*
X18283Y30207D01*
X18453Y30277D01*
X18599Y30389D01*
X18711Y30536D01*
X18782Y30706D01*
X18801Y30849D01*
X18900Y30836D01*
X19083Y30860D01*
X19253Y30931D01*
X19399Y31043D01*
X19511Y31189D01*
X19582Y31359D01*
X19585Y31383D01*
X19599Y31402D01*
X19802Y31501D01*
X19872Y31472D01*
X20054Y31448D01*
X20237Y31472D01*
X20407Y31543D01*
X20554Y31655D01*
X20666Y31801D01*
X20736Y31972D01*
X20760Y32154D01*
X20736Y32337D01*
X20666Y32507D01*
X20554Y32654D01*
X20407Y32766D01*
X20237Y32836D01*
X20054Y32860D01*
X19872Y32836D01*
X19701Y32766D01*
X19567Y32662D01*
X19522Y32676D01*
X19388Y32765D01*
X19406Y32900D01*
X19382Y33083D01*
X19311Y33253D01*
X19199Y33399D01*
X19053Y33511D01*
X18883Y33582D01*
X18700Y33606D01*
D02*
G37*
G36*
X36671Y29306D02*
X36488Y29282D01*
X36318Y29211D01*
X36172Y29099D01*
X36060Y28953D01*
X35989Y28783D01*
X35965Y28600D01*
X35989Y28417D01*
X36060Y28247D01*
X36172Y28101D01*
X36318Y27989D01*
X36488Y27918D01*
X36671Y27894D01*
X36854Y27918D01*
X37024Y27989D01*
X37170Y28101D01*
X37282Y28247D01*
X37353Y28417D01*
X37377Y28600D01*
X37353Y28783D01*
X37282Y28953D01*
X37170Y29099D01*
X37024Y29211D01*
X36854Y29282D01*
X36671Y29306D01*
D02*
G37*
G36*
X45680Y16589D02*
X45498Y16565D01*
X45327Y16494D01*
X45181Y16382D01*
X45069Y16236D01*
X44998Y16065D01*
X44974Y15883D01*
X44998Y15700D01*
X45069Y15530D01*
X45181Y15383D01*
X45327Y15271D01*
X45498Y15201D01*
X45680Y15177D01*
X45863Y15201D01*
X46033Y15271D01*
X46180Y15383D01*
X46292Y15530D01*
X46362Y15700D01*
X46386Y15883D01*
X46362Y16065D01*
X46292Y16236D01*
X46180Y16382D01*
X46033Y16494D01*
X45863Y16565D01*
X45680Y16589D01*
D02*
G37*
G36*
X44970Y14806D02*
X44787Y14782D01*
X44617Y14711D01*
X44471Y14599D01*
X44359Y14453D01*
X44288Y14283D01*
X44264Y14100D01*
X44288Y13917D01*
X44359Y13747D01*
X44471Y13601D01*
X44617Y13489D01*
X44787Y13418D01*
X44970Y13394D01*
X45153Y13418D01*
X45323Y13489D01*
X45469Y13601D01*
X45581Y13747D01*
X45652Y13917D01*
X45676Y14100D01*
X45652Y14283D01*
X45581Y14453D01*
X45469Y14599D01*
X45323Y14711D01*
X45153Y14782D01*
X44970Y14806D01*
D02*
G37*
G36*
X43025Y13505D02*
X42842Y13481D01*
X42672Y13411D01*
X42525Y13298D01*
X42413Y13152D01*
X42343Y12982D01*
X42319Y12799D01*
X42343Y12616D01*
X42413Y12446D01*
X42525Y12300D01*
X42672Y12188D01*
X42842Y12117D01*
X43025Y12093D01*
X43207Y12117D01*
X43378Y12188D01*
X43524Y12300D01*
X43636Y12446D01*
X43707Y12616D01*
X43731Y12799D01*
X43707Y12982D01*
X43636Y13152D01*
X43524Y13298D01*
X43378Y13411D01*
X43207Y13481D01*
X43025Y13505D01*
D02*
G37*
G36*
X3800Y29998D02*
X3617Y29974D01*
X3447Y29903D01*
X3301Y29791D01*
X3189Y29645D01*
X3118Y29475D01*
X3094Y29292D01*
X3118Y29109D01*
X3189Y28939D01*
X3301Y28793D01*
X3447Y28681D01*
X3617Y28610D01*
X3800Y28586D01*
X3983Y28610D01*
X4153Y28681D01*
X4299Y28793D01*
X4411Y28939D01*
X4482Y29109D01*
X4506Y29292D01*
X4482Y29475D01*
X4411Y29645D01*
X4299Y29791D01*
X4153Y29903D01*
X3983Y29974D01*
X3800Y29998D01*
D02*
G37*
G36*
X28375Y27317D02*
X28192Y27293D01*
X28022Y27223D01*
X27876Y27110D01*
X27764Y26964D01*
X27693Y26794D01*
X27669Y26611D01*
X27671Y26597D01*
X27638Y26563D01*
X27399Y26545D01*
X27253Y26658D01*
X27083Y26728D01*
X26900Y26752D01*
X26717Y26728D01*
X26547Y26658D01*
X26401Y26545D01*
X26289Y26399D01*
X26218Y26229D01*
X26194Y26046D01*
X26218Y25863D01*
X26289Y25693D01*
X26401Y25547D01*
X26547Y25435D01*
X26717Y25364D01*
X26900Y25340D01*
X27083Y25364D01*
X27253Y25435D01*
X27399Y25547D01*
X27511Y25693D01*
X27582Y25863D01*
X27606Y26046D01*
X27604Y26061D01*
X27637Y26095D01*
X27876Y26112D01*
X28022Y26000D01*
X28192Y25929D01*
X28375Y25905D01*
X28558Y25929D01*
X28728Y26000D01*
X28874Y26112D01*
X28986Y26258D01*
X29057Y26428D01*
X29081Y26611D01*
X29057Y26794D01*
X28986Y26964D01*
X28874Y27110D01*
X28728Y27223D01*
X28558Y27293D01*
X28375Y27317D01*
D02*
G37*
G36*
X12500Y24206D02*
X12317Y24182D01*
X12147Y24111D01*
X12050Y24037D01*
X11953Y24111D01*
X11783Y24182D01*
X11600Y24206D01*
X11417Y24182D01*
X11247Y24111D01*
X11101Y23999D01*
X10989Y23853D01*
X10918Y23683D01*
X10894Y23500D01*
X10918Y23317D01*
X10989Y23147D01*
X11101Y23001D01*
X11247Y22889D01*
X11417Y22818D01*
X11600Y22794D01*
X11783Y22818D01*
X11953Y22889D01*
X12050Y22963D01*
X12147Y22889D01*
X12317Y22818D01*
X12500Y22794D01*
X12683Y22818D01*
X12853Y22889D01*
X12999Y23001D01*
X13111Y23147D01*
X13182Y23317D01*
X13206Y23500D01*
X13182Y23683D01*
X13111Y23853D01*
X12999Y23999D01*
X12853Y24111D01*
X12683Y24182D01*
X12500Y24206D01*
D02*
G37*
G36*
X16450Y24172D02*
X16267Y24148D01*
X16097Y24078D01*
X15950Y23966D01*
X15838Y23819D01*
X15768Y23649D01*
X15744Y23466D01*
X15768Y23284D01*
X15838Y23113D01*
X15950Y22967D01*
X16097Y22855D01*
X16267Y22784D01*
X16450Y22760D01*
X16632Y22784D01*
X16803Y22855D01*
X16949Y22967D01*
X17061Y23113D01*
X17132Y23284D01*
X17156Y23466D01*
X17132Y23649D01*
X17061Y23819D01*
X16949Y23966D01*
X16803Y24078D01*
X16632Y24148D01*
X16450Y24172D01*
D02*
G37*
G36*
X7575Y23084D02*
X7392Y23060D01*
X7222Y22990D01*
X7076Y22878D01*
X6964Y22731D01*
X6893Y22561D01*
X6869Y22378D01*
X6893Y22196D01*
X6964Y22025D01*
X7076Y21879D01*
X7222Y21767D01*
X7392Y21696D01*
X7575Y21672D01*
X7758Y21696D01*
X7928Y21767D01*
X8074Y21879D01*
X8186Y22025D01*
X8257Y22196D01*
X8281Y22378D01*
X8257Y22561D01*
X8186Y22731D01*
X8074Y22878D01*
X7928Y22990D01*
X7758Y23060D01*
X7575Y23084D01*
D02*
G37*
G36*
X4589Y24906D02*
X4406Y24882D01*
X4236Y24811D01*
X4089Y24699D01*
X3977Y24553D01*
X3907Y24383D01*
X3883Y24200D01*
X3907Y24017D01*
X3977Y23847D01*
X4089Y23701D01*
X3977Y23554D01*
X3907Y23384D01*
X3883Y23201D01*
X3907Y23019D01*
X3977Y22848D01*
X4089Y22702D01*
Y22649D01*
X3977Y22503D01*
X3907Y22333D01*
X3883Y22150D01*
X3907Y21967D01*
X3977Y21797D01*
X4089Y21651D01*
X4236Y21539D01*
X4406Y21468D01*
X4589Y21444D01*
X4771Y21468D01*
X4942Y21539D01*
X5088Y21651D01*
X5200Y21797D01*
X5271Y21967D01*
X5295Y22150D01*
X5271Y22333D01*
X5200Y22503D01*
X5088Y22649D01*
Y22702D01*
X5200Y22848D01*
X5271Y23019D01*
X5295Y23201D01*
X5271Y23384D01*
X5200Y23554D01*
X5088Y23701D01*
X5200Y23847D01*
X5271Y24017D01*
X5295Y24200D01*
X5271Y24383D01*
X5200Y24553D01*
X5088Y24699D01*
X4942Y24811D01*
X4771Y24882D01*
X4589Y24906D01*
D02*
G37*
G36*
X23219Y23222D02*
X22997Y23192D01*
X22791Y23107D01*
X22613Y22970D01*
X22477Y22793D01*
X22391Y22586D01*
X22362Y22364D01*
X22391Y22142D01*
X22477Y21936D01*
X22560Y21827D01*
X22477Y21719D01*
X22391Y21512D01*
X22362Y21290D01*
X22368Y21244D01*
X22190Y21066D01*
X22135Y21073D01*
X21913Y21044D01*
X21706Y20958D01*
X21592Y20871D01*
X21479Y20958D01*
X21272Y21044D01*
X21050Y21073D01*
X20828Y21044D01*
X20621Y20958D01*
X20444Y20822D01*
X20307Y20644D01*
X20222Y20438D01*
X20193Y20216D01*
X20222Y19994D01*
X20307Y19787D01*
X20444Y19610D01*
X20621Y19473D01*
X20828Y19388D01*
X21050Y19358D01*
X21272Y19388D01*
X21412Y19446D01*
X21450Y19428D01*
X21471Y19394D01*
X21501Y19185D01*
X21389Y19039D01*
X21283Y18784D01*
X21247Y18510D01*
X21283Y18236D01*
X21389Y17981D01*
X21557Y17762D01*
X21776Y17594D01*
X22031Y17488D01*
X22305Y17452D01*
X22579Y17488D01*
X22834Y17594D01*
X23053Y17762D01*
X23221Y17981D01*
X23327Y18236D01*
X23363Y18510D01*
X23327Y18784D01*
X23221Y19039D01*
X23121Y19170D01*
X23206Y19333D01*
X23228Y19359D01*
X23441Y19388D01*
X23648Y19473D01*
X23762Y19561D01*
X23875Y19473D01*
X24082Y19388D01*
X24304Y19358D01*
X24526Y19388D01*
X24733Y19473D01*
X24910Y19610D01*
X25047Y19787D01*
X25132Y19994D01*
X25161Y20216D01*
X25132Y20438D01*
X25047Y20644D01*
X24910Y20822D01*
X24733Y20958D01*
X24526Y21044D01*
X24304Y21073D01*
X24249Y21066D01*
X24071Y21244D01*
X24077Y21290D01*
X24047Y21512D01*
X23962Y21719D01*
X23879Y21827D01*
X23962Y21936D01*
X24047Y22142D01*
X24077Y22364D01*
X24047Y22586D01*
X23962Y22793D01*
X23826Y22970D01*
X23648Y23107D01*
X23441Y23192D01*
X23219Y23222D01*
D02*
G37*
G36*
X18475Y20319D02*
X18292Y20295D01*
X18122Y20224D01*
X17976Y20112D01*
X17864Y19966D01*
X17793Y19796D01*
X17772Y19635D01*
X17740Y19595D01*
X17582Y19497D01*
X17499Y19532D01*
X17225Y19568D01*
X16951Y19532D01*
X16696Y19426D01*
X16477Y19258D01*
X16309Y19039D01*
X16203Y18784D01*
X16167Y18510D01*
X16203Y18236D01*
X16309Y17981D01*
X16477Y17762D01*
X16696Y17594D01*
X16951Y17488D01*
X17225Y17452D01*
X17499Y17488D01*
X17754Y17594D01*
X17973Y17762D01*
X18141Y17981D01*
X18247Y18236D01*
X18283Y18510D01*
X18253Y18740D01*
X18338Y18858D01*
X18409Y18916D01*
X18475Y18907D01*
X18583Y18921D01*
X18685Y18834D01*
X18719Y18792D01*
X18738Y18748D01*
X18707Y18510D01*
X18743Y18236D01*
X18849Y17981D01*
X19017Y17762D01*
X19236Y17594D01*
X19491Y17488D01*
X19765Y17452D01*
X20039Y17488D01*
X20294Y17594D01*
X20513Y17762D01*
X20681Y17981D01*
X20787Y18236D01*
X20823Y18510D01*
X20787Y18784D01*
X20681Y19039D01*
X20513Y19258D01*
X20294Y19426D01*
X20039Y19532D01*
X19765Y19568D01*
X19491Y19532D01*
X19365Y19480D01*
X19181Y19613D01*
X19157Y19796D01*
X19086Y19966D01*
X18974Y20112D01*
X18828Y20224D01*
X18658Y20295D01*
X18475Y20319D01*
D02*
G37*
G36*
X14685Y19568D02*
X14411Y19532D01*
X14156Y19426D01*
X13937Y19258D01*
X13769Y19039D01*
X13663Y18784D01*
X13627Y18510D01*
X13663Y18236D01*
X13769Y17981D01*
X13937Y17762D01*
X14156Y17594D01*
X14411Y17488D01*
X14685Y17452D01*
X14959Y17488D01*
X15214Y17594D01*
X15433Y17762D01*
X15601Y17981D01*
X15707Y18236D01*
X15743Y18510D01*
X15707Y18784D01*
X15601Y19039D01*
X15433Y19258D01*
X15214Y19426D01*
X14959Y19532D01*
X14685Y19568D01*
D02*
G37*
G36*
X5720Y18822D02*
X5537Y18797D01*
X5367Y18727D01*
X5221Y18615D01*
X5109Y18469D01*
X5038Y18298D01*
X5014Y18115D01*
X5038Y17933D01*
X5109Y17762D01*
X5221Y17616D01*
X5367Y17504D01*
X5537Y17434D01*
X5720Y17409D01*
X5903Y17434D01*
X6073Y17504D01*
X6219Y17616D01*
X6331Y17762D01*
X6402Y17933D01*
X6426Y18115D01*
X6402Y18298D01*
X6331Y18469D01*
X6219Y18615D01*
X6073Y18727D01*
X5903Y18797D01*
X5720Y18822D01*
D02*
G37*
G36*
X14114Y17026D02*
X12716D01*
X12579Y16999D01*
X12464Y16921D01*
X12386Y16806D01*
X12359Y16669D01*
Y15271D01*
X12386Y15134D01*
X12464Y15019D01*
X12579Y14941D01*
X12716Y14914D01*
X14114D01*
X14251Y14941D01*
X14366Y15019D01*
X14444Y15134D01*
X14471Y15271D01*
Y16669D01*
X14444Y16806D01*
X14366Y16921D01*
X14251Y16999D01*
X14114Y17026D01*
D02*
G37*
G36*
X21035Y17028D02*
X20761Y16992D01*
X20506Y16886D01*
X20287Y16718D01*
X20119Y16499D01*
X20013Y16244D01*
X19977Y15970D01*
X20013Y15696D01*
X20119Y15441D01*
X20287Y15222D01*
X20506Y15054D01*
X20761Y14948D01*
X21035Y14912D01*
X21309Y14948D01*
X21564Y15054D01*
X21783Y15222D01*
X21951Y15441D01*
X22057Y15696D01*
X22093Y15970D01*
X22057Y16244D01*
X21951Y16499D01*
X21783Y16718D01*
X21564Y16886D01*
X21309Y16992D01*
X21035Y17028D01*
D02*
G37*
G36*
X18495D02*
X18221Y16992D01*
X17966Y16886D01*
X17747Y16718D01*
X17579Y16499D01*
X17473Y16244D01*
X17437Y15970D01*
X17473Y15696D01*
X17579Y15441D01*
X17747Y15222D01*
X17966Y15054D01*
X18221Y14948D01*
X18495Y14912D01*
X18769Y14948D01*
X19024Y15054D01*
X19243Y15222D01*
X19411Y15441D01*
X19517Y15696D01*
X19553Y15970D01*
X19517Y16244D01*
X19411Y16499D01*
X19243Y16718D01*
X19024Y16886D01*
X18769Y16992D01*
X18495Y17028D01*
D02*
G37*
G36*
X15955D02*
X15681Y16992D01*
X15426Y16886D01*
X15207Y16718D01*
X15039Y16499D01*
X14933Y16244D01*
X14897Y15970D01*
X14933Y15696D01*
X15039Y15441D01*
X15207Y15222D01*
X15426Y15054D01*
X15681Y14948D01*
X15955Y14912D01*
X16229Y14948D01*
X16484Y15054D01*
X16703Y15222D01*
X16871Y15441D01*
X16977Y15696D01*
X17013Y15970D01*
X16977Y16244D01*
X16871Y16499D01*
X16703Y16718D01*
X16484Y16886D01*
X16229Y16992D01*
X15955Y17028D01*
D02*
G37*
%LPD*%
D55*
X18305Y13916D02*
G03*
X18200Y14021I-105J0D01*
G01*
X24490Y4720D02*
G03*
X22410Y6800I-2080J0D01*
G01*
X18305Y7795D02*
G03*
X19300Y6800I995J0D01*
G01*
X4600Y14214D02*
G03*
X4506Y14120I0J-94D01*
G01*
Y6610D02*
G03*
X6396Y4720I1890J0D01*
G01*
X19300Y6800D02*
X22410D01*
X18305Y7795D02*
Y13916D01*
X6396Y4720D02*
X11240D01*
X4506Y6610D02*
Y14120D01*
D86*
X11240Y4720D02*
D03*
X24490D02*
D03*
D91*
X14745Y22500D02*
D03*
X16225Y22045D02*
D03*
X10614Y23486D02*
D03*
X47000Y16300D02*
D03*
X43180Y14933D02*
D03*
X43180Y10019D02*
D03*
X20608Y29123D02*
D03*
X9300Y21075D02*
D03*
X3600Y30292D02*
D03*
X29440Y28275D02*
D03*
X30718Y34375D02*
D03*
X28695Y28275D02*
D03*
X28003D02*
D03*
X19043Y37768D02*
D03*
X7880Y34625D02*
D03*
X23699Y30496D02*
D03*
X7975Y43600D02*
D03*
X28531Y41600D02*
D03*
X28750Y45731D02*
D03*
X18066Y37042D02*
D03*
X28244Y32600D02*
D03*
X30718Y32650D02*
D03*
X28200Y31450D02*
D03*
X30718Y31934D02*
D03*
X31654Y32600D02*
D03*
X3600Y28292D02*
D03*
Y27292D02*
D03*
X16991Y26350D02*
D03*
X17757Y28186D02*
D03*
X14642Y31031D02*
D03*
X16991Y27600D02*
D03*
X4325Y35259D02*
D03*
D93*
X31654Y34375D02*
D03*
X30718Y33475D02*
D03*
X31654Y33425D02*
D03*
X27270Y29975D02*
D03*
X28192D02*
D03*
Y29050D02*
D03*
X27270D02*
D03*
M02*
