G04*
G04 #@! TF.GenerationSoftware,Altium Limited,Altium Designer,22.7.1 (60)*
G04*
G04 Layer_Physical_Order=4*
G04 Layer_Color=16711680*
%FSLAX43Y43*%
%MOMM*%
G71*
G04*
G04 #@! TF.SameCoordinates,954B6AC0-D961-4D12-9847-DB1D38B5DF19*
G04*
G04*
G04 #@! TF.FilePolarity,Positive*
G04*
G01*
G75*
%ADD10C,0.200*%
%ADD14C,0.300*%
%ADD44C,1.100*%
%ADD55C,0.500*%
%ADD56C,0.200*%
G04:AMPARAMS|DCode=59|XSize=0.61mm|YSize=0.6mm|CornerRadius=0.075mm|HoleSize=0mm|Usage=FLASHONLY|Rotation=0.000|XOffset=0mm|YOffset=0mm|HoleType=Round|Shape=RoundedRectangle|*
%AMROUNDEDRECTD59*
21,1,0.610,0.450,0,0,0.0*
21,1,0.460,0.600,0,0,0.0*
1,1,0.150,0.230,-0.225*
1,1,0.150,-0.230,-0.225*
1,1,0.150,-0.230,0.225*
1,1,0.150,0.230,0.225*
%
%ADD59ROUNDEDRECTD59*%
G04:AMPARAMS|DCode=60|XSize=0.59mm|YSize=0.6mm|CornerRadius=0.074mm|HoleSize=0mm|Usage=FLASHONLY|Rotation=90.000|XOffset=0mm|YOffset=0mm|HoleType=Round|Shape=RoundedRectangle|*
%AMROUNDEDRECTD60*
21,1,0.590,0.453,0,0,90.0*
21,1,0.443,0.600,0,0,90.0*
1,1,0.148,0.226,0.221*
1,1,0.148,0.226,-0.221*
1,1,0.148,-0.226,-0.221*
1,1,0.148,-0.226,0.221*
%
%ADD60ROUNDEDRECTD60*%
G04:AMPARAMS|DCode=61|XSize=0.61mm|YSize=0.6mm|CornerRadius=0.075mm|HoleSize=0mm|Usage=FLASHONLY|Rotation=90.000|XOffset=0mm|YOffset=0mm|HoleType=Round|Shape=RoundedRectangle|*
%AMROUNDEDRECTD61*
21,1,0.610,0.450,0,0,90.0*
21,1,0.460,0.600,0,0,90.0*
1,1,0.150,0.225,0.230*
1,1,0.150,0.225,-0.230*
1,1,0.150,-0.225,-0.230*
1,1,0.150,-0.225,0.230*
%
%ADD61ROUNDEDRECTD61*%
G04:AMPARAMS|DCode=62|XSize=0.94mm|YSize=1.03mm|CornerRadius=0.118mm|HoleSize=0mm|Usage=FLASHONLY|Rotation=180.000|XOffset=0mm|YOffset=0mm|HoleType=Round|Shape=RoundedRectangle|*
%AMROUNDEDRECTD62*
21,1,0.940,0.795,0,0,180.0*
21,1,0.705,1.030,0,0,180.0*
1,1,0.235,-0.353,0.398*
1,1,0.235,0.353,0.398*
1,1,0.235,0.353,-0.398*
1,1,0.235,-0.353,-0.398*
%
%ADD62ROUNDEDRECTD62*%
G04:AMPARAMS|DCode=64|XSize=0.59mm|YSize=0.6mm|CornerRadius=0.074mm|HoleSize=0mm|Usage=FLASHONLY|Rotation=180.000|XOffset=0mm|YOffset=0mm|HoleType=Round|Shape=RoundedRectangle|*
%AMROUNDEDRECTD64*
21,1,0.590,0.453,0,0,180.0*
21,1,0.443,0.600,0,0,180.0*
1,1,0.148,-0.221,0.226*
1,1,0.148,0.221,0.226*
1,1,0.148,0.221,-0.226*
1,1,0.148,-0.221,-0.226*
%
%ADD64ROUNDEDRECTD64*%
G04:AMPARAMS|DCode=65|XSize=1.36mm|YSize=1.81mm|CornerRadius=0.17mm|HoleSize=0mm|Usage=FLASHONLY|Rotation=90.000|XOffset=0mm|YOffset=0mm|HoleType=Round|Shape=RoundedRectangle|*
%AMROUNDEDRECTD65*
21,1,1.360,1.470,0,0,90.0*
21,1,1.020,1.810,0,0,90.0*
1,1,0.340,0.735,0.510*
1,1,0.340,0.735,-0.510*
1,1,0.340,-0.735,-0.510*
1,1,0.340,-0.735,0.510*
%
%ADD65ROUNDEDRECTD65*%
G04:AMPARAMS|DCode=68|XSize=0.94mm|YSize=1.03mm|CornerRadius=0.118mm|HoleSize=0mm|Usage=FLASHONLY|Rotation=90.000|XOffset=0mm|YOffset=0mm|HoleType=Round|Shape=RoundedRectangle|*
%AMROUNDEDRECTD68*
21,1,0.940,0.795,0,0,90.0*
21,1,0.705,1.030,0,0,90.0*
1,1,0.235,0.398,0.353*
1,1,0.235,0.398,-0.353*
1,1,0.235,-0.398,-0.353*
1,1,0.235,-0.398,0.353*
%
%ADD68ROUNDEDRECTD68*%
G04:AMPARAMS|DCode=69|XSize=0.92mm|YSize=1.08mm|CornerRadius=0.115mm|HoleSize=0mm|Usage=FLASHONLY|Rotation=0.000|XOffset=0mm|YOffset=0mm|HoleType=Round|Shape=RoundedRectangle|*
%AMROUNDEDRECTD69*
21,1,0.920,0.850,0,0,0.0*
21,1,0.690,1.080,0,0,0.0*
1,1,0.230,0.345,-0.425*
1,1,0.230,-0.345,-0.425*
1,1,0.230,-0.345,0.425*
1,1,0.230,0.345,0.425*
%
%ADD69ROUNDEDRECTD69*%
G04:AMPARAMS|DCode=73|XSize=0.92mm|YSize=1.08mm|CornerRadius=0.115mm|HoleSize=0mm|Usage=FLASHONLY|Rotation=270.000|XOffset=0mm|YOffset=0mm|HoleType=Round|Shape=RoundedRectangle|*
%AMROUNDEDRECTD73*
21,1,0.920,0.850,0,0,270.0*
21,1,0.690,1.080,0,0,270.0*
1,1,0.230,-0.425,-0.345*
1,1,0.230,-0.425,0.345*
1,1,0.230,0.425,0.345*
1,1,0.230,0.425,-0.345*
%
%ADD73ROUNDEDRECTD73*%
G04:AMPARAMS|DCode=74|XSize=1.26mm|YSize=0.58mm|CornerRadius=0.072mm|HoleSize=0mm|Usage=FLASHONLY|Rotation=180.000|XOffset=0mm|YOffset=0mm|HoleType=Round|Shape=RoundedRectangle|*
%AMROUNDEDRECTD74*
21,1,1.260,0.435,0,0,180.0*
21,1,1.115,0.580,0,0,180.0*
1,1,0.145,-0.558,0.217*
1,1,0.145,0.558,0.217*
1,1,0.145,0.558,-0.217*
1,1,0.145,-0.558,-0.217*
%
%ADD74ROUNDEDRECTD74*%
G04:AMPARAMS|DCode=75|XSize=1.21mm|YSize=1.46mm|CornerRadius=0.151mm|HoleSize=0mm|Usage=FLASHONLY|Rotation=270.000|XOffset=0mm|YOffset=0mm|HoleType=Round|Shape=RoundedRectangle|*
%AMROUNDEDRECTD75*
21,1,1.210,1.158,0,0,270.0*
21,1,0.907,1.460,0,0,270.0*
1,1,0.303,-0.579,-0.454*
1,1,0.303,-0.579,0.454*
1,1,0.303,0.579,0.454*
1,1,0.303,0.579,-0.454*
%
%ADD75ROUNDEDRECTD75*%
G04:AMPARAMS|DCode=80|XSize=1.21mm|YSize=1.46mm|CornerRadius=0.151mm|HoleSize=0mm|Usage=FLASHONLY|Rotation=0.000|XOffset=0mm|YOffset=0mm|HoleType=Round|Shape=RoundedRectangle|*
%AMROUNDEDRECTD80*
21,1,1.210,1.158,0,0,0.0*
21,1,0.907,1.460,0,0,0.0*
1,1,0.303,0.454,-0.579*
1,1,0.303,-0.454,-0.579*
1,1,0.303,-0.454,0.579*
1,1,0.303,0.454,0.579*
%
%ADD80ROUNDEDRECTD80*%
%ADD81C,1.900*%
%ADD82C,1.700*%
%ADD83R,1.700X1.700*%
%ADD84R,1.398X1.398*%
%ADD85C,1.398*%
%ADD86C,1.530*%
%ADD87C,2.445*%
%ADD88C,3.250*%
%ADD89C,2.100*%
%ADD90C,3.000*%
%ADD91C,0.700*%
%ADD92C,1.000*%
%ADD93C,0.900*%
%ADD94C,0.300*%
G04:AMPARAMS|DCode=95|XSize=1.8mm|YSize=2mm|CornerRadius=0.225mm|HoleSize=0mm|Usage=FLASHONLY|Rotation=270.000|XOffset=0mm|YOffset=0mm|HoleType=Round|Shape=RoundedRectangle|*
%AMROUNDEDRECTD95*
21,1,1.800,1.550,0,0,270.0*
21,1,1.350,2.000,0,0,270.0*
1,1,0.450,-0.775,-0.675*
1,1,0.450,-0.775,0.675*
1,1,0.450,0.775,0.675*
1,1,0.450,0.775,-0.675*
%
%ADD95ROUNDEDRECTD95*%
%ADD96O,1.800X0.250*%
%ADD97O,0.250X1.800*%
G36*
X48762Y49528D02*
X49073Y49333D01*
X49333Y49073D01*
X49528Y48762D01*
X49650Y48415D01*
X49693Y48030D01*
Y2070D01*
X49650Y1685D01*
X49528Y1338D01*
X49333Y1027D01*
X49073Y767D01*
X48762Y572D01*
X48415Y450D01*
X48030Y407D01*
X2070D01*
X1685Y450D01*
X1338Y572D01*
X1027Y767D01*
X767Y1027D01*
X572Y1338D01*
X450Y1685D01*
X407Y2070D01*
Y48030D01*
X450Y48415D01*
X572Y48762D01*
X767Y49073D01*
X1027Y49333D01*
X1338Y49528D01*
X1666Y49643D01*
X48434D01*
X48762Y49528D01*
D02*
G37*
%LPC*%
G36*
X12150Y11559D02*
X12135Y11556D01*
X12120Y11557D01*
X11801Y11526D01*
X11773Y11517D01*
X11743Y11514D01*
X11436Y11421D01*
X11410Y11407D01*
X11381Y11398D01*
X11099Y11247D01*
X11075Y11228D01*
X11049Y11214D01*
X10801Y11011D01*
X10782Y10988D01*
X10759Y10969D01*
X10556Y10721D01*
X10542Y10695D01*
X10523Y10671D01*
X10372Y10389D01*
X10363Y10360D01*
X10349Y10334D01*
X10256Y10027D01*
X10253Y9997D01*
X10244Y9969D01*
X10213Y9650D01*
X10216Y9620D01*
X10213Y9590D01*
X10244Y9271D01*
X10253Y9243D01*
X10256Y9213D01*
X10349Y8906D01*
X10363Y8880D01*
X10372Y8851D01*
X10523Y8569D01*
X10542Y8545D01*
X10556Y8519D01*
X10759Y8271D01*
X10782Y8252D01*
X10801Y8229D01*
X11049Y8026D01*
X11075Y8012D01*
X11099Y7993D01*
X11381Y7842D01*
X11410Y7833D01*
X11436Y7819D01*
X11743Y7726D01*
X11773Y7723D01*
X11801Y7714D01*
X12120Y7683D01*
X12135Y7684D01*
X12150Y7681D01*
X12165Y7684D01*
X12180Y7683D01*
X12499Y7714D01*
X12527Y7723D01*
X12557Y7726D01*
X12864Y7819D01*
X12890Y7833D01*
X12919Y7842D01*
X13201Y7993D01*
X13225Y8012D01*
X13251Y8026D01*
X13499Y8229D01*
X13518Y8252D01*
X13541Y8271D01*
X13744Y8519D01*
X13758Y8545D01*
X13777Y8569D01*
X13928Y8851D01*
X13937Y8880D01*
X13951Y8906D01*
X14044Y9213D01*
X14047Y9243D01*
X14056Y9271D01*
X14087Y9590D01*
X14084Y9620D01*
X14087Y9650D01*
X14056Y9969D01*
X14047Y9997D01*
X14044Y10027D01*
X13951Y10334D01*
X13937Y10360D01*
X13928Y10389D01*
X13777Y10671D01*
X13758Y10695D01*
X13744Y10721D01*
X13541Y10969D01*
X13518Y10988D01*
X13499Y11011D01*
X13251Y11214D01*
X13225Y11228D01*
X13201Y11247D01*
X12919Y11398D01*
X12890Y11407D01*
X12864Y11421D01*
X12557Y11514D01*
X12527Y11517D01*
X12499Y11526D01*
X12180Y11557D01*
X12165Y11556D01*
X12150Y11559D01*
D02*
G37*
G36*
X48500Y48500D02*
X23800D01*
X1500Y48395D01*
Y44173D01*
X1435Y44015D01*
X1395Y43715D01*
X1435Y43415D01*
X1500Y43257D01*
Y42708D01*
X1449Y42687D01*
X1262Y42543D01*
X1118Y42356D01*
X1028Y42139D01*
X998Y41907D01*
X997Y41905D01*
Y40695D01*
X992D01*
X1043Y40186D01*
X1191Y39696D01*
X1432Y39245D01*
X1500Y39163D01*
Y39093D01*
X1435Y38935D01*
X1395Y38635D01*
X1435Y38335D01*
X1500Y38177D01*
Y36553D01*
X1435Y36395D01*
X1395Y36095D01*
X1435Y35795D01*
X1500Y35637D01*
Y34013D01*
X1435Y33855D01*
X1395Y33555D01*
X1435Y33255D01*
X1500Y33097D01*
Y23556D01*
X1500Y13500D01*
X1505Y13402D01*
X1543Y13210D01*
X1618Y13029D01*
X1727Y12866D01*
X1866Y12727D01*
X2029Y12618D01*
X2210Y12543D01*
X2402Y12505D01*
X2500Y12500D01*
X13525D01*
X13525Y12500D01*
X13525Y12500D01*
X13525D01*
X13710Y12490D01*
X13919Y12448D01*
X14164Y12346D01*
X14386Y12199D01*
X14574Y12011D01*
X14721Y11789D01*
X14823Y11544D01*
X14875Y11283D01*
X14875Y11150D01*
Y5356D01*
X14675Y5303D01*
X14540Y5480D01*
X14317Y5650D01*
X14058Y5758D01*
X13780Y5794D01*
X13502Y5758D01*
X13243Y5650D01*
X13020Y5480D01*
X12850Y5257D01*
X12742Y4998D01*
X12706Y4720D01*
X12742Y4442D01*
X12850Y4183D01*
X13020Y3960D01*
X13243Y3790D01*
X13502Y3682D01*
X13780Y3646D01*
X14058Y3682D01*
X14317Y3790D01*
X14540Y3960D01*
X14678Y4140D01*
X14851Y4107D01*
X14880Y4092D01*
X14881Y4075D01*
X14930Y3830D01*
X15026Y3599D01*
X15164Y3391D01*
X15341Y3214D01*
X15549Y3076D01*
X15780Y2980D01*
X16025Y2931D01*
X16150Y2925D01*
X29955Y2925D01*
X30018Y2715D01*
X30033Y2689D01*
X30041Y2660D01*
X30185Y2391D01*
X30204Y2367D01*
X30219Y2341D01*
X30412Y2105D01*
X30436Y2086D01*
X30455Y2062D01*
X30691Y1869D01*
X30717Y1854D01*
X30741Y1835D01*
X31010Y1691D01*
X31039Y1683D01*
X31065Y1668D01*
X31357Y1580D01*
X31387Y1577D01*
X31416Y1568D01*
X31720Y1538D01*
X31735Y1540D01*
X31750Y1537D01*
X31765Y1540D01*
X31780Y1538D01*
X32084Y1568D01*
X32113Y1577D01*
X32143Y1580D01*
X32435Y1668D01*
X32461Y1683D01*
X32490Y1691D01*
X32760Y1835D01*
X32783Y1854D01*
X32809Y1869D01*
X33045Y2062D01*
X33065Y2086D01*
X33088Y2105D01*
X33281Y2341D01*
X33296Y2367D01*
X33315Y2391D01*
X33459Y2660D01*
X33467Y2689D01*
X33482Y2715D01*
X33545Y2925D01*
X48500Y2925D01*
Y48500D01*
D02*
G37*
G36*
X11240Y5794D02*
X10962Y5758D01*
X10703Y5650D01*
X10480Y5480D01*
X10310Y5257D01*
X10202Y4998D01*
X10166Y4720D01*
X10202Y4442D01*
X10310Y4183D01*
X10480Y3960D01*
X10703Y3790D01*
X10962Y3682D01*
X11240Y3646D01*
X11518Y3682D01*
X11777Y3790D01*
X12000Y3960D01*
X12170Y4183D01*
X12278Y4442D01*
X12314Y4720D01*
X12278Y4998D01*
X12170Y5257D01*
X12000Y5480D01*
X11777Y5650D01*
X11518Y5758D01*
X11240Y5794D01*
D02*
G37*
%LPD*%
G36*
X9748Y32011D02*
X9875Y31986D01*
X10002Y32011D01*
X10125Y32075D01*
X10248Y32011D01*
X10288Y32003D01*
X10392Y31815D01*
X10394Y31793D01*
X10354Y31592D01*
X10397Y31377D01*
X10457Y31288D01*
X10502Y31142D01*
X10457Y30996D01*
X10397Y30907D01*
X10354Y30692D01*
X10397Y30477D01*
X10503Y30319D01*
X10524Y30242D01*
Y30142D01*
X10503Y30065D01*
X10397Y29907D01*
X10354Y29692D01*
X10397Y29477D01*
X10518Y29295D01*
Y29189D01*
X10397Y29007D01*
X10354Y28792D01*
X10397Y28577D01*
X10518Y28395D01*
X10651Y28307D01*
X10663Y28261D01*
Y28131D01*
X10651Y28085D01*
X10518Y27997D01*
X10397Y27815D01*
X10354Y27600D01*
X10397Y27385D01*
X10518Y27203D01*
X10700Y27082D01*
X10915Y27039D01*
X11130Y27082D01*
X11312Y27203D01*
X11433Y27385D01*
X11452Y27482D01*
X11546Y27554D01*
X11688Y27739D01*
X11777Y27954D01*
X11808Y28185D01*
X11808Y28185D01*
X11823Y28273D01*
X11878Y28305D01*
X11891Y28304D01*
X12088Y28195D01*
X12094Y28165D01*
X12166Y28058D01*
Y28026D01*
X12094Y27919D01*
X12069Y27792D01*
X12094Y27665D01*
X12158Y27542D01*
X12094Y27419D01*
X12069Y27292D01*
X12094Y27165D01*
X12166Y27058D01*
Y27026D01*
X12094Y26919D01*
X12069Y26792D01*
X12094Y26665D01*
X12158Y26542D01*
X12094Y26419D01*
X12069Y26292D01*
X12078Y26246D01*
X12076Y26242D01*
X11925Y26091D01*
X11921Y26089D01*
X11875Y26098D01*
X11748Y26073D01*
X11641Y26001D01*
X11609D01*
X11502Y26073D01*
X11375Y26098D01*
X11248Y26073D01*
X11125Y26009D01*
X11002Y26073D01*
X10875Y26098D01*
X10748Y26073D01*
X10641Y26001D01*
X10609D01*
X10502Y26073D01*
X10375Y26098D01*
X10248Y26073D01*
X10125Y26009D01*
X10002Y26073D01*
X9875Y26098D01*
X9748Y26073D01*
X9641Y26001D01*
X9609D01*
X9502Y26073D01*
X9375Y26098D01*
X9248Y26073D01*
X9141Y26001D01*
X9109D01*
X9002Y26073D01*
X8875Y26098D01*
X8748Y26073D01*
X8625Y26009D01*
X8502Y26073D01*
X8375Y26098D01*
X8248Y26073D01*
X8141Y26001D01*
X8109D01*
X8002Y26073D01*
X7875Y26098D01*
X7681Y26250D01*
Y26515D01*
X7681Y26516D01*
X7708Y26723D01*
X7716Y26742D01*
X7915Y26782D01*
X8097Y26903D01*
X8218Y27085D01*
X8261Y27300D01*
X8218Y27515D01*
X8097Y27696D01*
X7915Y27818D01*
X7700Y27861D01*
X7485Y27818D01*
X7303Y27696D01*
X7182Y27515D01*
X7139Y27300D01*
X7182Y27085D01*
X7190Y27073D01*
X7111Y26883D01*
X7063Y26515D01*
X7069D01*
Y26250D01*
X6875Y26098D01*
X6748Y26073D01*
X6641Y26001D01*
X6609D01*
X6502Y26073D01*
X6375Y26098D01*
X6329Y26089D01*
X6325Y26091D01*
X6174Y26242D01*
X6172Y26246D01*
X6181Y26292D01*
X6156Y26419D01*
X6092Y26542D01*
X6156Y26665D01*
X6181Y26792D01*
X6156Y26919D01*
X6084Y27026D01*
Y27058D01*
X6156Y27165D01*
X6181Y27292D01*
X6156Y27419D01*
X6092Y27542D01*
X6156Y27665D01*
X6181Y27792D01*
X6156Y27919D01*
X6084Y28026D01*
Y28058D01*
X6156Y28165D01*
X6181Y28292D01*
X6156Y28419D01*
X6092Y28542D01*
X6156Y28665D01*
X6175Y28762D01*
X6283Y28827D01*
X6372Y28858D01*
X6485Y28782D01*
X6700Y28739D01*
X6915Y28782D01*
X7097Y28903D01*
X7218Y29085D01*
X7261Y29300D01*
X7218Y29515D01*
X7097Y29697D01*
X6964Y29785D01*
X6952Y29831D01*
Y29961D01*
X6964Y30007D01*
X7097Y30095D01*
X7218Y30277D01*
X7261Y30492D01*
X7218Y30707D01*
X7097Y30889D01*
X6915Y31010D01*
X6700Y31053D01*
X6485Y31010D01*
X6298Y31077D01*
X6179Y31278D01*
X6181Y31292D01*
X6156Y31419D01*
X6092Y31542D01*
X6156Y31665D01*
X6181Y31792D01*
X6172Y31838D01*
X6174Y31842D01*
X6325Y31993D01*
X6329Y31995D01*
X6375Y31986D01*
X6502Y32011D01*
X6609Y32083D01*
X6748Y32011D01*
X6875Y31986D01*
X7002Y32011D01*
X7109Y32083D01*
X7248Y32011D01*
X7375Y31986D01*
X7502Y32011D01*
X7641Y32083D01*
X7748Y32011D01*
X7875Y31986D01*
X8002Y32011D01*
X8109Y32083D01*
X8141D01*
X8248Y32011D01*
X8375Y31986D01*
X8502Y32011D01*
X8625Y32075D01*
X8748Y32011D01*
X8875Y31986D01*
X9002Y32011D01*
X9109Y32083D01*
X9141D01*
X9248Y32011D01*
X9375Y31986D01*
X9502Y32011D01*
X9609Y32083D01*
X9641D01*
X9748Y32011D01*
D02*
G37*
G36*
X32889Y30417D02*
X32889Y30417D01*
X32889D01*
X33072Y30375D01*
X33109Y30360D01*
X33161Y30281D01*
X33137Y30081D01*
X33101Y30046D01*
X33087D01*
Y29300D01*
Y28554D01*
X33132D01*
X33300Y28386D01*
X33300Y26932D01*
X33300Y26742D01*
D01*
X33262Y26552D01*
X33225Y26463D01*
X33087Y26325D01*
X32906Y26250D01*
X31236Y26250D01*
X31140Y26250D01*
X30963Y26323D01*
X30828Y26459D01*
X30755Y26636D01*
X30755Y26732D01*
X30755Y28875D01*
X29634Y28875D01*
X29481Y28938D01*
X29363Y29056D01*
X29300Y29209D01*
X29300Y29292D01*
X29300Y30025D01*
X29343Y30207D01*
X29360Y30247D01*
X29470Y30357D01*
X29614Y30417D01*
X29692Y30417D01*
X32889Y30417D01*
X32889Y30417D01*
D02*
G37*
G36*
X46046Y46545D02*
X46271Y46271D01*
X46545Y46046D01*
X46858Y45879D01*
X47000Y45836D01*
X47000Y27992D01*
X46803Y27837D01*
X46800Y27837D01*
X46649D01*
Y26900D01*
Y25963D01*
X46803D01*
X47000Y25808D01*
X47000Y25573D01*
X47000Y25573D01*
X47000Y25460D01*
X46913Y25251D01*
X46754Y25092D01*
X46545Y25005D01*
X46432Y25005D01*
X43251Y25005D01*
X43251Y25005D01*
X43178Y25001D01*
X43036Y24973D01*
X42902Y24917D01*
X42781Y24837D01*
X42678Y24734D01*
X42598Y24613D01*
X42542Y24479D01*
X42514Y24337D01*
X42510Y24264D01*
X42510Y22000D01*
X42510Y19775D01*
X42510Y19775D01*
X42510Y19681D01*
X42438Y19506D01*
X42304Y19372D01*
X42130Y19300D01*
X42035Y19300D01*
X33200Y19300D01*
X33122Y19300D01*
X32979Y19360D01*
X32869Y19469D01*
X32809Y19613D01*
X32809Y19691D01*
X32809Y21623D01*
X32809Y21623D01*
X32854Y21805D01*
X32867Y21837D01*
X32973Y21943D01*
X33111Y22000D01*
X33186Y22000D01*
X33500Y22000D01*
X33500Y22000D01*
X33500Y22000D01*
X33587Y22009D01*
X33747Y22075D01*
X33869Y22197D01*
X33936Y22357D01*
X33944Y22444D01*
X33944Y23195D01*
X34088Y23309D01*
Y24100D01*
Y24846D01*
X34042D01*
X33944Y24927D01*
Y28473D01*
X34042Y28554D01*
X34088D01*
Y29300D01*
Y30046D01*
X34042D01*
X33944Y30127D01*
Y33046D01*
X34035Y33121D01*
X34088D01*
Y33842D01*
Y34563D01*
X34035D01*
X33944Y34638D01*
Y41856D01*
X33986Y42066D01*
X33944Y42275D01*
Y45746D01*
X35640D01*
X35718Y45762D01*
X35784Y45806D01*
X35828Y45872D01*
X35844Y45950D01*
Y46600D01*
X46017Y46600D01*
X46046Y46545D01*
D02*
G37*
G36*
X30178Y27519D02*
X30327Y27370D01*
X30376Y27251D01*
X30408Y27069D01*
Y27069D01*
X30408Y27069D01*
X30408Y27069D01*
X30408Y26438D01*
X30420Y26315D01*
X30514Y26088D01*
X30688Y25914D01*
X30915Y25820D01*
X31038Y25808D01*
X32852Y25808D01*
X32961D01*
X33162Y25725D01*
X33316Y25571D01*
X33370Y25442D01*
X33400Y25260D01*
Y25260D01*
X33400Y25260D01*
X33400Y25260D01*
X33400Y24966D01*
X33357Y24923D01*
X33287Y24883D01*
Y24100D01*
Y23317D01*
X33357Y23277D01*
X33400Y23234D01*
X33400Y22736D01*
X33400Y22649D01*
X33334Y22489D01*
X33211Y22366D01*
X33146Y22340D01*
X32964Y22300D01*
X32964Y22300D01*
Y22300D01*
X32963Y22300D01*
X32873Y22291D01*
X32706Y22222D01*
X32578Y22094D01*
X32509Y21927D01*
X32500Y21836D01*
X32500Y21836D01*
X32500Y21836D01*
X32500Y21640D01*
X32500Y19668D01*
X32500Y19594D01*
X32444Y19459D01*
X32341Y19356D01*
X32314Y19345D01*
X32133Y19300D01*
X32132Y19300D01*
X22916Y19300D01*
X22809Y19383D01*
X22566Y19483D01*
X22305Y19518D01*
X22044Y19483D01*
X21801Y19383D01*
X21694Y19300D01*
X20722D01*
X20620Y19342D01*
X20542Y19420D01*
X20500Y19522D01*
Y19577D01*
X20500Y19577D01*
X20500Y21092D01*
X20500Y21158D01*
X20551Y21281D01*
X20644Y21374D01*
X20767Y21425D01*
X20833Y21425D01*
X20833Y21425D01*
X22359Y21425D01*
X22431Y21432D01*
X22562Y21487D01*
X22663Y21588D01*
X22718Y21719D01*
X22725Y21791D01*
X22725Y21791D01*
X22725Y23118D01*
X22783Y23259D01*
X22891Y23367D01*
X23032Y23425D01*
X23108D01*
X23108Y23425D01*
X24101Y23425D01*
X24233Y23370D01*
X24334Y23269D01*
X24389Y23137D01*
Y23066D01*
X24389D01*
X24389Y21811D01*
X24396Y21736D01*
X24454Y21597D01*
X24560Y21490D01*
X24700Y21432D01*
X24775Y21425D01*
X24775Y21425D01*
X27476Y21425D01*
X27476Y26976D01*
Y27100D01*
X27571Y27329D01*
X27746Y27505D01*
X27976Y27600D01*
X28100D01*
X28100Y27600D01*
X29877Y27600D01*
X29983Y27600D01*
X30178Y27519D01*
D02*
G37*
G36*
X28052Y19000D02*
X39960Y19000D01*
X39960Y19000D01*
X39960Y19000D01*
X39960D01*
X40145Y18983D01*
X40263Y18960D01*
X40453Y18882D01*
X40623Y18768D01*
X40768Y18623D01*
X40882Y18453D01*
X40960Y18263D01*
X41000Y18063D01*
Y17960D01*
X41000Y10120D01*
X41000D01*
X41000Y10019D01*
X40961Y9822D01*
X40884Y9636D01*
X40772Y9468D01*
X40629Y9326D01*
X40462Y9214D01*
X40276Y9137D01*
X40078Y9098D01*
X39978Y9098D01*
X32986Y9098D01*
X32986Y9098D01*
X32875Y9092D01*
X32659Y9049D01*
X32455Y8964D01*
X32271Y8840D01*
X32115Y8684D01*
X31992Y8500D01*
X31907Y8296D01*
X31864Y8079D01*
X31859Y7968D01*
X31859Y6880D01*
X31859Y6880D01*
X31859Y6793D01*
X31825Y6623D01*
X31759Y6463D01*
X31662Y6319D01*
X31540Y6196D01*
X31396Y6100D01*
X31236Y6034D01*
X31066Y6000D01*
X30979Y6000D01*
X28485Y6000D01*
X28485Y6000D01*
X28353Y6000D01*
X28095Y6051D01*
X27851Y6152D01*
X27632Y6298D01*
X27446Y6485D01*
X27300Y6704D01*
X27199Y6947D01*
X27148Y7205D01*
X27148Y7337D01*
X27148Y18096D01*
X27148Y18096D01*
X27148Y18096D01*
X27167Y18282D01*
X27182Y18359D01*
X27251Y18524D01*
X27350Y18672D01*
X27476Y18798D01*
X27624Y18897D01*
X27788Y18965D01*
X27963Y19000D01*
X28052Y19000D01*
D02*
G37*
%LPC*%
G36*
X32487Y30046D02*
X32442D01*
X32320Y30022D01*
X32215Y29952D01*
X32146Y29848D01*
X32121Y29725D01*
Y29600D01*
X32487D01*
Y30046D01*
D02*
G37*
G36*
Y29000D02*
X32121D01*
Y28875D01*
X32146Y28752D01*
X32215Y28648D01*
X32320Y28578D01*
X32442Y28554D01*
X32487D01*
Y29000D01*
D02*
G37*
G36*
X39627Y41476D02*
X39300Y41433D01*
X38996Y41307D01*
X38735Y41106D01*
X38535Y40845D01*
X38431Y40594D01*
X38256Y40574D01*
X38219Y40582D01*
X38131Y40795D01*
X37947Y41035D01*
X37707Y41219D01*
X37427Y41335D01*
X37427Y41335D01*
Y40215D01*
Y39094D01*
X37427Y39094D01*
X37707Y39210D01*
X37947Y39395D01*
X38131Y39635D01*
X38219Y39847D01*
X38256Y39855D01*
X38431Y39836D01*
X38535Y39584D01*
X38735Y39323D01*
X38996Y39123D01*
X39300Y38997D01*
X39627Y38954D01*
X39953Y38997D01*
X40257Y39123D01*
X40518Y39323D01*
X40718Y39584D01*
X40844Y39889D01*
X40887Y40215D01*
X40844Y40541D01*
X40718Y40845D01*
X40518Y41106D01*
X40257Y41307D01*
X39953Y41433D01*
X39627Y41476D01*
D02*
G37*
G36*
X36827Y41335D02*
X36826Y41335D01*
X36547Y41219D01*
X36306Y41035D01*
X36122Y40795D01*
X36006Y40515D01*
X36006Y40515D01*
X36827D01*
Y41335D01*
D02*
G37*
G36*
Y39915D02*
X36006D01*
X36006Y39915D01*
X36122Y39635D01*
X36306Y39395D01*
X36547Y39210D01*
X36826Y39094D01*
X36827Y39094D01*
Y39915D01*
D02*
G37*
G36*
X34740Y34563D02*
X34688D01*
Y34142D01*
X35064D01*
Y34240D01*
X35039Y34363D01*
X34969Y34468D01*
X34864Y34539D01*
X34740Y34563D01*
D02*
G37*
G36*
X35064Y33542D02*
X34688D01*
Y33121D01*
X34740D01*
X34864Y33145D01*
X34969Y33216D01*
X35039Y33321D01*
X35064Y33445D01*
Y33542D01*
D02*
G37*
G36*
X34732Y30046D02*
X34688D01*
Y29600D01*
X35054D01*
Y29725D01*
X35029Y29848D01*
X34960Y29952D01*
X34855Y30022D01*
X34732Y30046D01*
D02*
G37*
G36*
X35054Y29000D02*
X34688D01*
Y28554D01*
X34732D01*
X34855Y28578D01*
X34960Y28648D01*
X35029Y28752D01*
X35054Y28875D01*
Y29000D01*
D02*
G37*
G36*
X46049Y27837D02*
X45895D01*
X45758Y27810D01*
X45642Y27732D01*
X45564Y27616D01*
X45537Y27479D01*
Y27200D01*
X46049D01*
Y27837D01*
D02*
G37*
G36*
Y26600D02*
X45537D01*
Y26321D01*
X45564Y26184D01*
X45642Y26068D01*
X45758Y25990D01*
X45895Y25963D01*
X46049D01*
Y26600D01*
D02*
G37*
G36*
X34732Y24846D02*
X34688D01*
Y24100D01*
Y23354D01*
X34728D01*
X34733Y23354D01*
X34797Y23317D01*
X34922Y23201D01*
X34959Y22924D01*
X35085Y22620D01*
X35285Y22358D01*
X35546Y22158D01*
X35797Y22054D01*
X35817Y21880D01*
X35809Y21843D01*
X35597Y21755D01*
X35356Y21570D01*
X35172Y21330D01*
X35056Y21050D01*
X35056Y21050D01*
X36177D01*
X37297D01*
X37297Y21050D01*
X37181Y21330D01*
X36997Y21570D01*
X36757Y21755D01*
X36544Y21843D01*
X36536Y21880D01*
X36556Y22054D01*
X36807Y22158D01*
X37068Y22358D01*
X37268Y22620D01*
X37394Y22924D01*
X37437Y23250D01*
X37394Y23576D01*
X37268Y23880D01*
X37068Y24142D01*
X36807Y24342D01*
X36503Y24468D01*
X36177Y24511D01*
X35850Y24468D01*
X35546Y24342D01*
X35285Y24142D01*
X35254Y24101D01*
X35054Y24168D01*
Y24525D01*
X35029Y24648D01*
X34960Y24752D01*
X34855Y24822D01*
X34732Y24846D01*
D02*
G37*
G36*
X37297Y20450D02*
X36477D01*
Y19630D01*
X36477Y19630D01*
X36757Y19745D01*
X36997Y19930D01*
X37181Y20170D01*
X37297Y20450D01*
X37297Y20450D01*
D02*
G37*
G36*
X35877D02*
X35056D01*
X35056Y20450D01*
X35172Y20170D01*
X35356Y19930D01*
X35597Y19745D01*
X35876Y19630D01*
X35877Y19630D01*
Y20450D01*
D02*
G37*
G36*
X32287Y24800D02*
X32215Y24752D01*
X32146Y24648D01*
X32136Y24600D01*
X32287D01*
Y24800D01*
D02*
G37*
G36*
Y23600D02*
X32136D01*
X32146Y23552D01*
X32215Y23448D01*
X32287Y23400D01*
Y23600D01*
D02*
G37*
G36*
X36827Y17451D02*
Y17150D01*
X37127D01*
X36997Y17320D01*
X36827Y17451D01*
D02*
G37*
G36*
X35527Y17451D02*
X35356Y17320D01*
X35226Y17150D01*
X35527D01*
Y17451D01*
D02*
G37*
G36*
X28350Y14951D02*
X28180Y14820D01*
X28049Y14650D01*
X28350D01*
Y14951D01*
D02*
G37*
G36*
X31500Y15261D02*
X31174Y15218D01*
X30870Y15092D01*
X30609Y14891D01*
X30408Y14630D01*
X30304Y14379D01*
X30130Y14359D01*
X30093Y14367D01*
X30005Y14580D01*
X29820Y14820D01*
X29650Y14951D01*
Y14000D01*
Y13049D01*
X29820Y13180D01*
X30005Y13420D01*
X30093Y13633D01*
X30130Y13641D01*
X30304Y13621D01*
X30408Y13370D01*
X30609Y13108D01*
X30870Y12908D01*
X31174Y12782D01*
X31500Y12739D01*
X31826Y12782D01*
X32130Y12908D01*
X32392Y13108D01*
X32592Y13370D01*
X32718Y13674D01*
X32761Y14000D01*
X32718Y14326D01*
X32592Y14630D01*
X32392Y14891D01*
X32130Y15092D01*
X31826Y15218D01*
X31500Y15261D01*
D02*
G37*
G36*
X28350Y13350D02*
X28049D01*
X28180Y13180D01*
X28350Y13049D01*
Y13350D01*
D02*
G37*
G36*
X37127Y15850D02*
X36177D01*
X35226D01*
X35356Y15680D01*
X35597Y15495D01*
X35809Y15407D01*
X35817Y15370D01*
X35797Y15196D01*
X35546Y15092D01*
X35285Y14891D01*
X35085Y14630D01*
X34959Y14326D01*
X34916Y14000D01*
X34959Y13674D01*
X35085Y13370D01*
X35285Y13108D01*
X35546Y12908D01*
X35850Y12782D01*
X36177Y12739D01*
X36503Y12782D01*
X36807Y12908D01*
X37068Y13108D01*
X37268Y13370D01*
X37394Y13674D01*
X37437Y14000D01*
X37394Y14326D01*
X37268Y14630D01*
X37068Y14891D01*
X36807Y15092D01*
X36556Y15196D01*
X36536Y15370D01*
X36544Y15407D01*
X36757Y15495D01*
X36997Y15680D01*
X37127Y15850D01*
D02*
G37*
G36*
X30900Y11797D02*
Y11370D01*
X31327D01*
X31142Y11612D01*
X30900Y11797D01*
D02*
G37*
G36*
X29600D02*
X29359Y11612D01*
X29173Y11370D01*
X29600D01*
Y11797D01*
D02*
G37*
G36*
X31327Y10070D02*
X30900D01*
Y9643D01*
X31142Y9828D01*
X31327Y10070D01*
D02*
G37*
G36*
X29600D02*
X29173D01*
X29359Y9828D01*
X29600Y9643D01*
Y10070D01*
D02*
G37*
G36*
X33250Y12082D02*
X32898Y12035D01*
X32569Y11899D01*
X32287Y11683D01*
X32071Y11401D01*
X31935Y11072D01*
X31888Y10720D01*
X31935Y10368D01*
X32071Y10039D01*
X32287Y9757D01*
X32569Y9541D01*
X32898Y9405D01*
X33250Y9358D01*
X33602Y9405D01*
X33931Y9541D01*
X34213Y9757D01*
X34429Y10039D01*
X34565Y10368D01*
X34612Y10720D01*
X34565Y11072D01*
X34429Y11401D01*
X34213Y11683D01*
X33931Y11899D01*
X33602Y12035D01*
X33250Y12082D01*
D02*
G37*
G36*
X30900Y8797D02*
Y8370D01*
X31327D01*
X31142Y8612D01*
X30900Y8797D01*
D02*
G37*
G36*
X29600D02*
X29359Y8612D01*
X29173Y8370D01*
X29600D01*
Y8797D01*
D02*
G37*
G36*
X31327Y7070D02*
X30900D01*
Y6643D01*
X31142Y6828D01*
X31327Y7070D01*
D02*
G37*
G36*
X29600D02*
X29173D01*
X29359Y6828D01*
X29600Y6643D01*
Y7070D01*
D02*
G37*
%LPD*%
D10*
X10375Y24063D02*
G03*
X10614Y23486I815J0D01*
G01*
X6775Y23949D02*
G03*
X6875Y24190I-241J241D01*
G01*
X8600Y23618D02*
G03*
X8500Y23859I-341J0D01*
G01*
X7856Y21246D02*
G03*
X8600Y23042I-1796J1796D01*
G01*
X8375Y24161D02*
G03*
X8500Y23859I427J0D01*
G01*
X6775Y23949D02*
G03*
X6475Y23225I724J-724D01*
G01*
Y22700D02*
G03*
X6740Y22060I905J0D01*
G01*
X27225Y34375D02*
G03*
X27975Y33625I750J0D01*
G01*
X19659Y39659D02*
G03*
X19975Y39975I0J316D01*
G01*
X8532Y34382D02*
G03*
X8750Y34909I-527J527D01*
G01*
X8532Y34382D02*
G03*
X8375Y34003I378J-378D01*
G01*
X22500Y29818D02*
G03*
X22866Y28934I1249J0D01*
G01*
X14200Y26217D02*
G03*
X14019Y26292I-181J-181D01*
G01*
X10900Y26400D02*
G03*
X10875Y26375I0J-25D01*
G01*
X14400Y25734D02*
G03*
X14200Y26217I-683J0D01*
G01*
X8175Y26422D02*
G03*
X7875Y25698I724J-724D01*
G01*
X7857Y25010D02*
G03*
X7875Y25028I0J18D01*
G01*
X6114Y27792D02*
G03*
X6700Y28035I0J828D01*
G01*
X5671Y26792D02*
G03*
X6600Y27177I0J1314D01*
G01*
X5613Y33825D02*
G03*
X5375Y33250I575J-575D01*
G01*
X3093Y31943D02*
G03*
X2875Y31417I526J-526D01*
G01*
X4364Y26792D02*
G03*
X3900Y26600I0J-656D01*
G01*
X3340Y25527D02*
G03*
X3529Y25500I197J698D01*
G01*
X2975Y26217D02*
G03*
X3900Y26600I0J1308D01*
G01*
X2875Y26217D02*
G03*
X3081Y25719I705J0D01*
G01*
X3440Y18115D02*
G03*
X3180Y17488I628J-628D01*
G01*
X28777Y33134D02*
G03*
X28244Y32600I0J-533D01*
G01*
Y32536D02*
G03*
X28805Y31975I561J0D01*
G01*
X27699Y31834D02*
G03*
X28082Y31450I384J0D01*
G01*
X28200D02*
G03*
X28716Y30934I516J0D01*
G01*
X17734Y28550D02*
G03*
X17434Y28850I-300J0D01*
G01*
X14939Y30316D02*
G03*
X14642Y31031I-1011J0D01*
G01*
X17734Y28210D02*
G03*
X17757Y28186I23J0D01*
G01*
X11875Y24992D02*
G03*
X12488Y23512I2093J0D01*
G01*
X11375Y24043D02*
G03*
X11600Y23500I768J0D01*
G01*
X19765Y19035D02*
G03*
X18050Y20750I-1715J0D01*
G01*
X14869Y17056D02*
G03*
X13073Y17800I-1796J-1796D01*
G01*
X13801Y21719D02*
G03*
X12931Y22590I-871J0D01*
G01*
X13801Y21719D02*
G03*
X13987Y21270I636J0D01*
G01*
X15825Y20750D02*
G03*
X15342Y20950I-483J-483D01*
G01*
X9875Y23992D02*
G03*
X9800Y23917I0J-75D01*
G01*
Y23125D02*
G03*
X10335Y22590I535J0D01*
G01*
X13436Y21719D02*
G03*
X12931Y22225I-506J0D01*
G01*
X13232Y21227D02*
G03*
X13436Y21719I-492J492D01*
G01*
X9375Y24052D02*
G03*
X9435Y23992I60J0D01*
G01*
Y23125D02*
G03*
X10335Y22225I900J0D01*
G01*
X12755Y19400D02*
G03*
X12930Y19575I0J175D01*
G01*
X19274Y35676D02*
G03*
X19175Y35717I-99J-99D01*
G01*
X19550Y35400D02*
G03*
X20193Y35134I643J643D01*
G01*
X20168Y30850D02*
G03*
X20899Y31581I0J731D01*
G01*
X28982Y4500D02*
G03*
X30207Y5007I0J1732D01*
G01*
X31347Y5480D02*
G03*
X30207Y5007I0J-1612D01*
G01*
X33293D02*
G03*
X34518Y4500I1225J1225D01*
G01*
X33293Y5007D02*
G03*
X32153Y5480I-1140J-1140D01*
G01*
X19200Y34800D02*
G03*
X19601Y34634I401J401D01*
G01*
X19500Y33379D02*
G03*
X19974Y32235I1617J0D01*
G01*
X17200Y34342D02*
G03*
X17703Y34134I503J503D01*
G01*
X24699Y30507D02*
G03*
X24900Y30021I687J0D01*
G01*
X30400Y39163D02*
G03*
X30038Y39525I-362J0D01*
G01*
X30000Y35134D02*
G03*
X30400Y35534I0J400D01*
G01*
X24699Y40937D02*
G03*
X24600Y41175I-337J0D01*
G01*
X24499Y41420D02*
G03*
X24600Y41175I346J0D01*
G01*
X25199Y42835D02*
G03*
X24900Y43134I-299J0D01*
G01*
X19753Y37134D02*
G03*
X19400Y36987I0J-499D01*
G01*
X17208Y35700D02*
G03*
X18752Y36340I0J2184D01*
G01*
X26699Y40695D02*
G03*
X26500Y41175I-678J0D01*
G01*
X26360Y41513D02*
G03*
X26500Y41175I478J0D01*
G01*
X29144Y41280D02*
G03*
X28449Y39600I1680J-1680D01*
G01*
Y39184D02*
G03*
X28999Y38634I550J0D01*
G01*
X29600Y43856D02*
G03*
X29056Y44400I-544J0D01*
G01*
X21000Y44800D02*
G03*
X21400Y44400I400J0D01*
G01*
X26360Y43345D02*
G03*
X25805Y43900I-555J0D01*
G01*
X18500Y44600D02*
G03*
X19200Y43900I700J0D01*
G01*
X5175Y36412D02*
G03*
X5188Y36444I-32J32D01*
G01*
X14991Y34843D02*
G03*
X16200Y34342I1209J1209D01*
G01*
X16163Y31505D02*
G03*
X16200Y31542I0J37D01*
G01*
X23525Y29818D02*
G03*
X23699Y30237I-419J419D01*
G01*
X10915Y27600D02*
G03*
X11500Y28185I0J585D01*
G01*
X2875Y30392D02*
G03*
X2975Y30292I100J0D01*
G01*
X14939Y29217D02*
G03*
X14333Y28966I0J-857D01*
G01*
X2859Y40871D02*
G03*
X4655Y40127I1796J1796D01*
G01*
X15844D02*
G03*
X17640Y40871I0J2540D01*
G01*
X19596Y41775D02*
G03*
X17800Y41031I0J-2540D01*
G01*
X1405Y40695D02*
G03*
X2049Y39141I2198J0D01*
G01*
X1900Y42400D02*
G03*
X1405Y41905I0J-495D01*
G01*
X3623Y42400D02*
G03*
X5419Y43144I0J2540D01*
G01*
X16344Y43856D02*
G03*
X18088Y43134I1744J1744D01*
G01*
X7927Y44600D02*
G03*
X6131Y43856I0J-2540D01*
G01*
X16344D02*
G03*
X14548Y44600I-1796J-1796D01*
G01*
X21633Y30192D02*
G03*
X22200Y30759I0J567D01*
G01*
X15955Y18245D02*
G03*
X16900Y17300I945J0D01*
G01*
X17175Y14650D02*
G03*
X18495Y15970I0J1320D01*
G01*
X15955Y18882D02*
G03*
X14887Y19950I-1068J0D01*
G01*
X11930Y15584D02*
G03*
X12864Y14650I934J0D01*
G01*
X13959Y28792D02*
G03*
X14300Y28933I0J483D01*
G01*
X11677Y35092D02*
G03*
X11375Y34790I0J-302D01*
G01*
X16163Y31505D02*
G03*
X15827Y32316I-1146J0D01*
G01*
X13300Y34843D02*
G03*
X12698Y35092I-602J-602D01*
G01*
X6700Y30492D02*
G03*
X5976Y30792I-724J-724D01*
G01*
X15100Y28025D02*
G03*
X14833Y28292I-267J0D01*
G01*
X15100Y27625D02*
G03*
X15125Y27600I25J0D01*
G01*
X12100Y34600D02*
G03*
X11875Y34375I0J-225D01*
G01*
X12913Y34429D02*
G03*
X12500Y34600I-413J-413D01*
G01*
X16175Y28875D02*
G03*
X16200Y28850I25J0D01*
G01*
X15539Y30792D02*
G03*
X16139Y30192I600J0D01*
G01*
X15539Y30792D02*
G03*
X14823Y32519I-2442J0D01*
G01*
X5175Y34837D02*
G03*
X5512Y34500I337J0D01*
G01*
X6375Y34175D02*
G03*
X6050Y34500I-325J0D01*
G01*
X14475Y27500D02*
G03*
X14183Y27792I-292J0D01*
G01*
X14475Y26650D02*
G03*
X14775Y26350I300J0D01*
G01*
X12600Y32367D02*
G03*
X13175Y31792I575J0D01*
G01*
X7700Y27300D02*
G03*
X7375Y26515I785J-785D01*
G01*
X10915Y31592D02*
G03*
X11639Y31292I724J724D01*
G01*
X3875Y31500D02*
G03*
X4083Y31292I208J0D01*
G01*
X4128Y32403D02*
G03*
X3875Y31792I611J-611D01*
G01*
X4162Y32437D02*
G03*
X4375Y32951I-514J514D01*
G01*
X11156Y30792D02*
G03*
X10915Y30692I0J-341D01*
G01*
X9100Y34292D02*
G03*
X8875Y34067I0J-225D01*
G01*
X9100Y34300D02*
G03*
X9400Y34600I0J300D01*
G01*
X10039Y37682D02*
G03*
X9400Y36139I1543J-1543D01*
G01*
X11881Y30292D02*
G03*
X11256Y30033I0J-883D01*
G01*
X10500Y36325D02*
G03*
X9875Y35700I0J-625D01*
G01*
X14600Y35900D02*
G03*
X13574Y36325I-1026J-1026D01*
G01*
X14600Y35900D02*
G03*
X15102Y35692I502J502D01*
G01*
X10915Y28792D02*
G03*
X11046Y28846I0J186D01*
G01*
X10915Y28592D02*
G03*
X10994Y28625I0J112D01*
G01*
X12264Y29792D02*
G03*
X11800Y29600I0J-656D01*
G01*
X10800Y35925D02*
G03*
X10375Y35500I0J-425D01*
G01*
X14300Y35534D02*
G03*
X13356Y35925I-944J-944D01*
G01*
X6575Y34900D02*
G03*
X6875Y34600I300J0D01*
G01*
X7138Y34491D02*
G03*
X6875Y34600I-263J-263D01*
G01*
X7375Y33918D02*
G03*
X7138Y34491I-810J0D01*
G01*
X11683Y28676D02*
G03*
X11500Y28235I441J-441D01*
G01*
X12490Y29292D02*
G03*
X12164Y29157I0J-460D01*
G01*
X11200Y35509D02*
G03*
X10875Y35184I0J-325D01*
G01*
X13686Y35214D02*
G03*
X12975Y35509I-711J-711D01*
G01*
X15787Y33113D02*
G03*
X16200Y32942I413J413D01*
G01*
X6700Y29500D02*
G03*
X6408Y29792I-292J0D01*
G01*
X10375Y24063D02*
Y24992D01*
X8600Y23200D02*
Y23618D01*
X8375Y24161D02*
Y24992D01*
X2875Y27292D02*
X3600D01*
X7705Y21095D02*
X7856Y21246D01*
X6475Y23200D02*
Y23225D01*
Y22700D02*
Y23200D01*
X7705Y21095D02*
X7705Y21095D01*
X6740Y22060D02*
X7705Y21095D01*
X27975Y33625D02*
X28999D01*
X27225Y34375D02*
Y34642D01*
X19043Y39659D02*
X19659D01*
X8375Y33092D02*
Y34003D01*
X22866Y28934D02*
X23100Y28700D01*
X13175Y26292D02*
X14019D01*
X8175Y26422D02*
X8247Y26350D01*
X8170Y26427D02*
X8175Y26422D01*
X14400Y25519D02*
Y25734D01*
X10875Y24992D02*
Y26375D01*
X7875Y24992D02*
Y25698D01*
X7857Y25010D02*
X7875Y24992D01*
X5075Y27792D02*
X6114D01*
X5375Y32951D02*
Y33250D01*
X3093Y31943D02*
X3250Y32100D01*
X5075Y26792D02*
X5671D01*
X4364D02*
X5075D01*
X2875Y29292D02*
X3800D01*
X4589Y23200D02*
X5450Y23200D01*
X3300Y25500D02*
X3529D01*
X3081Y25719D02*
X3300Y25500D01*
X2875Y26217D02*
X2975D01*
X4587Y23200D02*
X4589D01*
X3180Y16850D02*
Y17488D01*
X28777Y33134D02*
X28999D01*
X28244Y32536D02*
Y32600D01*
X28082Y31450D02*
X28200D01*
X28716Y30934D02*
X28805D01*
X7875Y33092D02*
Y34625D01*
X17200Y28850D02*
X17434D01*
X17734Y28210D02*
Y28550D01*
X14939Y30217D02*
Y30316D01*
X12488Y23512D02*
X12500Y23500D01*
X11375Y24043D02*
Y24992D01*
X19765Y18510D02*
Y19035D01*
X17425Y20750D02*
X18050D01*
X14869Y17056D02*
X15955Y15970D01*
X12755Y17800D02*
X13073D01*
X13987Y21270D02*
X14308Y20950D01*
X15342D01*
X9875Y23992D02*
Y24992D01*
X10335Y22590D02*
X12931D01*
X9800Y23125D02*
Y23917D01*
X12930Y20925D02*
X13232Y21227D01*
X9375Y24052D02*
Y24992D01*
X10335Y22225D02*
X12931D01*
X9435Y23125D02*
Y23992D01*
X17425Y20750D02*
Y20750D01*
X12930Y19575D02*
Y20925D01*
X17425Y20750D02*
Y20750D01*
X18475Y18305D02*
Y19613D01*
X7575Y22378D02*
Y23200D01*
Y22339D02*
Y22378D01*
X19274Y35676D02*
X19274Y35676D01*
X20193Y35134D02*
X20899D01*
X19274Y35676D02*
X19550Y35400D01*
X18139Y30850D02*
X20168D01*
X31347Y5480D02*
X32153D01*
X8025Y26372D02*
X8115D01*
X8170Y26427D01*
X19601Y34634D02*
X20899D01*
X17208Y32950D02*
X17216Y32942D01*
X19974Y32235D02*
X20054Y32154D01*
X19500Y33379D02*
Y34134D01*
X17703D02*
X19500D01*
X24699Y30507D02*
Y31834D01*
X25699Y27540D02*
Y27640D01*
Y31834D01*
X29610Y39525D02*
X30038D01*
X30400Y35534D02*
Y39163D01*
X28999Y35134D02*
X30000D01*
X24699Y39934D02*
Y40937D01*
X24499Y41420D02*
Y41775D01*
X25199Y39934D02*
Y42835D01*
X24499Y43134D02*
X24900D01*
X19753Y37134D02*
X20899D01*
X18752Y36340D02*
X19400Y36987D01*
X17208Y35700D02*
X17210Y35702D01*
X26360Y41513D02*
Y41745D01*
X26699Y39230D02*
Y40695D01*
X28449Y39184D02*
Y39600D01*
X5075Y29292D02*
X5783D01*
X11800Y26292D02*
X13175D01*
X8750Y34909D02*
Y36409D01*
X2049Y39141D02*
X2555Y38635D01*
X5720Y17792D02*
Y17792D01*
X5720Y16895D02*
X5720Y17792D01*
Y17792D02*
X5720Y18115D01*
X3180Y12050D02*
X3180Y15250D01*
X3180Y15250D02*
X3180Y15250D01*
X5740Y12050D02*
X5740Y15185D01*
X5720Y15205D02*
X5740Y15185D01*
X3180Y15250D02*
X3180Y15250D01*
X29600Y42745D02*
Y43856D01*
X21000Y44800D02*
Y45344D01*
X21400Y44400D02*
X29056D01*
X26360Y42745D02*
Y43345D01*
X18500Y44600D02*
Y45344D01*
X19200Y43900D02*
X25805D01*
X8600Y23042D02*
Y23200D01*
X7575Y23200D02*
X7575Y23200D01*
X3175Y30292D02*
X3600D01*
X6575Y36412D02*
Y37450D01*
X5188Y36444D02*
Y37450D01*
X23699Y31834D02*
X23699Y31834D01*
X19043Y37768D02*
Y38634D01*
X20899D01*
X17200Y32942D02*
X17208Y32950D01*
X22200Y30759D02*
Y31834D01*
X22199D02*
X22200D01*
X6875Y24992D02*
X6875D01*
X13175Y28792D02*
X13175Y28792D01*
X10915Y30792D02*
X10915Y30792D01*
X5375Y35412D02*
X5375D01*
X5400Y23150D02*
X5450Y23200D01*
X27699Y39934D02*
Y41600D01*
Y41732D01*
X29600Y42745D02*
X29610D01*
X26360Y41745D02*
Y41750D01*
X26360Y42745D02*
X26360D01*
X16200Y35692D02*
Y37042D01*
X17200D02*
X18066D01*
X17200Y32942D02*
X17216D01*
X22699Y31834D02*
Y33442D01*
X23699Y30237D02*
Y30496D01*
Y31834D01*
X24199Y31834D02*
Y33442D01*
X28999Y33625D02*
Y33634D01*
X28999Y33134D02*
X28999Y33134D01*
X27199Y38475D02*
Y39934D01*
X29610Y41569D02*
Y41745D01*
X29144Y41280D02*
X29610Y41745D01*
X20899Y38134D02*
X22357D01*
X7880Y36425D02*
X7881Y37450D01*
X2875Y28292D02*
X3600D01*
X16125Y26350D02*
X16991D01*
X16125Y27600D02*
X16991D01*
X3600Y28292D02*
X5075D01*
X3600Y30292D02*
X5075D01*
X6875Y24190D02*
Y24992D01*
X3600Y27292D02*
X5075D01*
X3800Y29292D02*
X5075D01*
X7870Y34630D02*
Y35400D01*
Y34630D02*
X7875Y34625D01*
X4655Y40127D02*
X15844D01*
X2555Y41175D02*
X2859Y40871D01*
X17640D02*
X17800Y41031D01*
X19596Y41775D02*
X23499D01*
X1405Y40695D02*
Y41905D01*
X1900Y42400D02*
X3623D01*
X18088Y43134D02*
X23499D01*
X5419Y43144D02*
X6131Y43856D01*
X7927Y44600D02*
X14548D01*
X26399Y28075D02*
X26400Y28076D01*
X17216Y32942D02*
X17258Y32900D01*
X18700D01*
X19500Y34134D02*
X20899D01*
X20899Y31581D02*
Y33134D01*
X17175Y30192D02*
X21633D01*
X18100Y30889D02*
X18139Y30850D01*
X18900Y31542D02*
X19200D01*
X17200D02*
X18900D01*
X16900Y17300D02*
X18495D01*
X15955Y18245D02*
Y18882D01*
X18495Y15970D02*
Y17300D01*
X14308Y19950D02*
X14887D01*
X12864Y14650D02*
X17175D01*
X11930Y15584D02*
Y20925D01*
X13175Y28792D02*
X13959D01*
X14300Y28933D02*
X14333Y28966D01*
X11375Y33092D02*
Y34790D01*
X11677Y35092D02*
X12698D01*
X13300Y34843D02*
X15827Y32316D01*
X5075Y30792D02*
X5976D01*
X13175Y28292D02*
X14833D01*
X15100Y27625D02*
Y28025D01*
X11875Y33092D02*
Y34375D01*
X12913Y34429D02*
X14823Y32519D01*
X12100Y34600D02*
X12500D01*
X16175Y28875D02*
Y30192D01*
X16139D02*
X16175D01*
X5175Y34837D02*
Y35412D01*
X6375Y33092D02*
Y34175D01*
X5512Y34500D02*
X6050D01*
X13175Y27792D02*
X14183D01*
X14475Y26650D02*
Y27500D01*
X14775Y26350D02*
X15125D01*
X12600Y32367D02*
Y33300D01*
X7375Y24992D02*
Y26515D01*
X11639Y31292D02*
X13175D01*
X4083D02*
X5075D01*
X3875Y31500D02*
Y31792D01*
X4128Y32403D02*
X4162Y32437D01*
X11156Y30792D02*
X13175D01*
X8875Y33092D02*
Y34067D01*
X9100Y34292D02*
Y34300D01*
X9400Y34600D02*
Y36139D01*
X10915Y29692D02*
X11256Y30033D01*
X11881Y30292D02*
X13175D01*
X9875Y33092D02*
Y35700D01*
X10500Y36325D02*
X13574D01*
X15102Y35692D02*
X16200D01*
X10994Y28625D02*
X10994Y28625D01*
X11046Y28846D02*
X11800Y29600D01*
X12264Y29792D02*
X13175D01*
X10375Y33092D02*
Y35500D01*
X10800Y35925D02*
X13356D01*
X14300Y35534D02*
X14991Y34843D01*
X6575Y34900D02*
Y35412D01*
X7375Y33092D02*
Y33918D01*
X11500Y28185D02*
Y28235D01*
X11683Y28676D02*
X12164Y29157D01*
X12490Y29292D02*
X13175D01*
X10875Y33092D02*
Y35184D01*
X11200Y35509D02*
X12975D01*
X13686Y35214D02*
X15787Y33113D01*
X15787Y33113D01*
X5075Y29792D02*
X6408D01*
X6700Y29300D02*
Y29500D01*
D14*
X7705Y21095D02*
G03*
X7753Y21075I48J48D01*
G01*
X21559Y27665D02*
G03*
X21499Y27640I0J-86D01*
G01*
X4589Y21835D02*
G03*
X4904Y21075I1075J0D01*
G01*
X25699Y23081D02*
G03*
X25300Y24043I-1361J0D01*
G01*
X24880Y25058D02*
G03*
X25300Y24043I1435J0D01*
G01*
X23185Y45731D02*
G03*
X22250Y45344I0J-1323D01*
G01*
X33197Y35000D02*
G03*
X32787Y34011I989J-989D01*
G01*
X7753Y21075D02*
X9300D01*
X14261Y37300D02*
Y37704D01*
X21559Y27665D02*
X23100D01*
X4589Y21835D02*
Y22150D01*
X25699Y22560D02*
Y23081D01*
X7959Y42752D02*
X7975Y42768D01*
X24880Y25058D02*
Y25100D01*
X25699Y22560D02*
X25700Y22561D01*
X23185Y45731D02*
X25220D01*
X7975Y42762D02*
Y42768D01*
Y43600D01*
Y40905D02*
X7975Y41737D01*
X27699Y41600D02*
X28531Y41600D01*
X27699Y42625D02*
X27699Y43457D01*
X27280Y45731D02*
X28750D01*
X29830Y29892D02*
Y30934D01*
X29830D02*
Y31975D01*
Y30934D02*
X29830D01*
X29610Y40525D02*
X30442Y40525D01*
X14261Y37726D02*
Y39239D01*
X14239Y37704D02*
X14261Y37726D01*
X14239Y37682D02*
Y37704D01*
X32787Y33842D02*
Y34011D01*
D44*
X19750Y45344D02*
D03*
X22250D02*
D03*
X21000D02*
D03*
X17250D02*
D03*
X18500D02*
D03*
D55*
X7975Y42762D02*
X10039D01*
D56*
X19274Y35676D02*
D03*
X10994Y28625D02*
D03*
X15787Y33113D02*
D03*
D59*
X12930Y20925D02*
D03*
X17200Y32942D02*
D03*
X16200D02*
D03*
X17200Y35692D02*
D03*
X16200D02*
D03*
X17200Y34342D02*
D03*
X16200D02*
D03*
X17200Y31542D02*
D03*
X16200D02*
D03*
X11930Y20925D02*
D03*
X24499Y41775D02*
D03*
X23499D02*
D03*
X24499Y43134D02*
D03*
X23499D02*
D03*
X17200Y37042D02*
D03*
X16200D02*
D03*
X17175Y30192D02*
D03*
X16175D02*
D03*
X17200Y28850D02*
D03*
X16200D02*
D03*
X4375Y32951D02*
D03*
X5375Y32951D02*
D03*
X16125Y26350D02*
D03*
X15125D02*
D03*
X16125Y27600D02*
D03*
X15125Y27600D02*
D03*
D60*
X18475Y18305D02*
D03*
Y17280D02*
D03*
X7870Y35400D02*
D03*
Y36425D02*
D03*
X2875Y30392D02*
D03*
X2875Y31417D02*
D03*
X2875Y28292D02*
D03*
X2875Y29317D02*
D03*
X2875Y27242D02*
D03*
Y26217D02*
D03*
X19043Y38634D02*
D03*
Y39659D02*
D03*
X7975Y42762D02*
D03*
X7975Y41737D02*
D03*
X27699Y41600D02*
D03*
X27699Y42625D02*
D03*
D61*
X14308Y20950D02*
D03*
X5175Y35412D02*
D03*
Y36412D02*
D03*
X6575Y35412D02*
D03*
Y36412D02*
D03*
X14308Y19950D02*
D03*
X26360Y41745D02*
D03*
Y42745D02*
D03*
X29610Y41745D02*
D03*
Y42745D02*
D03*
X29610Y39525D02*
D03*
Y40525D02*
D03*
X14939Y30217D02*
D03*
X14939Y29217D02*
D03*
D62*
X32787Y33842D02*
D03*
X34388Y33842D02*
D03*
X17425Y20750D02*
D03*
X15825Y20750D02*
D03*
D64*
X28805Y30934D02*
D03*
X29830Y30934D02*
D03*
X28805Y31975D02*
D03*
X29830Y31975D02*
D03*
X6475Y23200D02*
D03*
X5450Y23200D02*
D03*
X8600D02*
D03*
X7575Y23200D02*
D03*
X23525Y29818D02*
D03*
X22500Y29818D02*
D03*
D65*
X7753Y21075D02*
D03*
X4903D02*
D03*
D68*
X12755Y17800D02*
D03*
X12755Y19400D02*
D03*
D69*
X32787Y24100D02*
D03*
X34387Y24100D02*
D03*
X32787Y29300D02*
D03*
X34387Y29300D02*
D03*
D73*
X3180Y15250D02*
D03*
X3180Y16850D02*
D03*
D74*
X25220Y45731D02*
D03*
X27280Y45731D02*
D03*
D75*
X5720Y15205D02*
D03*
X5720Y16895D02*
D03*
D80*
X48039Y26900D02*
D03*
X46349Y26900D02*
D03*
D81*
X36177Y14000D02*
D03*
Y16500D02*
D03*
X29000Y14000D02*
D03*
X31500D02*
D03*
X36177Y20750D02*
D03*
Y23250D02*
D03*
X39627Y40215D02*
D03*
X37127D02*
D03*
D82*
X32250Y46800D02*
D03*
X32095Y36105D02*
D03*
Y38645D02*
D03*
Y41185D02*
D03*
Y43725D02*
D03*
X2555Y43715D02*
D03*
Y41175D02*
D03*
Y38635D02*
D03*
Y36095D02*
D03*
Y33555D02*
D03*
D83*
X34790Y46800D02*
D03*
D84*
X13415Y15970D02*
D03*
D85*
X14685Y18510D02*
D03*
X15955Y15970D02*
D03*
X17225Y18510D02*
D03*
X18495Y15970D02*
D03*
X19765Y18510D02*
D03*
X21035Y15970D02*
D03*
X22305Y18510D02*
D03*
D86*
X11240Y4720D02*
D03*
X13780D02*
D03*
X24490D02*
D03*
X21950D02*
D03*
D87*
X10120Y12670D02*
D03*
X25610D02*
D03*
D88*
X23580Y9620D02*
D03*
X12150D02*
D03*
D89*
X30250Y10720D02*
D03*
X33250D02*
D03*
X30250Y7720D02*
D03*
X33250D02*
D03*
D90*
X47550Y2550D02*
D03*
X2550D02*
D03*
X47550Y47550D02*
D03*
X2550D02*
D03*
D91*
X11639Y26400D02*
D03*
X11600Y23500D02*
D03*
X10900Y26400D02*
D03*
X12500Y23500D02*
D03*
X16450Y23466D02*
D03*
X14745Y22500D02*
D03*
X16225Y22045D02*
D03*
X10614Y23486D02*
D03*
X18475Y19613D02*
D03*
X28375Y26611D02*
D03*
X4589Y24200D02*
D03*
X3300Y25500D02*
D03*
X24880Y25100D02*
D03*
X26900Y26046D02*
D03*
X8025Y26372D02*
D03*
X7700Y27300D02*
D03*
X6700Y29300D02*
D03*
X23100Y27665D02*
D03*
Y28700D02*
D03*
X34518Y4500D02*
D03*
X44970Y14100D02*
D03*
X43025Y12799D02*
D03*
X47000Y16300D02*
D03*
X45680Y15883D02*
D03*
X43180Y14933D02*
D03*
X43180Y10019D02*
D03*
X46649D02*
D03*
X20608Y29123D02*
D03*
X7625Y31642D02*
D03*
Y30825D02*
D03*
Y30008D02*
D03*
Y29190D02*
D03*
Y28373D02*
D03*
X8750Y36409D02*
D03*
X5613Y33825D02*
D03*
X8325Y28373D02*
D03*
Y29190D02*
D03*
Y30008D02*
D03*
Y30825D02*
D03*
Y31642D02*
D03*
X3180Y12050D02*
D03*
X5740D02*
D03*
X7575Y22378D02*
D03*
X14400Y25519D02*
D03*
X6600Y27177D02*
D03*
X9300Y21075D02*
D03*
X4589Y22150D02*
D03*
X6700Y31627D02*
D03*
Y30492D02*
D03*
Y28035D02*
D03*
X3600Y30292D02*
D03*
X3800Y29292D02*
D03*
X29440Y28275D02*
D03*
X30718Y34375D02*
D03*
X28695Y28275D02*
D03*
X28003D02*
D03*
X36759Y32570D02*
D03*
X37375Y37050D02*
D03*
X36671Y28600D02*
D03*
X6575Y37450D02*
D03*
X5188D02*
D03*
X19043Y37768D02*
D03*
X19200Y34800D02*
D03*
X19175Y35717D02*
D03*
X12600Y33300D02*
D03*
X9025Y30272D02*
D03*
X7881Y37450D02*
D03*
X19975Y39975D02*
D03*
X33425Y42066D02*
D03*
X5720Y18115D02*
D03*
X3440Y18115D02*
D03*
X10915Y31592D02*
D03*
Y27600D02*
D03*
Y30692D02*
D03*
Y29692D02*
D03*
X7880Y34625D02*
D03*
X23699Y30496D02*
D03*
X7975Y43600D02*
D03*
Y40905D02*
D03*
X28531Y41600D02*
D03*
X27699Y43457D02*
D03*
X28750Y45731D02*
D03*
X22357Y38134D02*
D03*
X24199Y33442D02*
D03*
X18066Y37042D02*
D03*
X22699Y33442D02*
D03*
X25000D02*
D03*
X28244Y32600D02*
D03*
X30718Y32650D02*
D03*
X28200Y31450D02*
D03*
X30718Y31934D02*
D03*
X31654Y32600D02*
D03*
X27225Y34642D02*
D03*
X27199Y38475D02*
D03*
X30442Y40525D02*
D03*
X9025Y28922D02*
D03*
Y27550D02*
D03*
Y31642D02*
D03*
X10915Y28792D02*
D03*
X3600Y28292D02*
D03*
Y27292D02*
D03*
X4589Y23201D02*
D03*
X16991Y26350D02*
D03*
X17757Y28186D02*
D03*
X14642Y31031D02*
D03*
X16991Y27600D02*
D03*
X3250Y32100D02*
D03*
X4325Y35259D02*
D03*
X37839Y37700D02*
D03*
X38150Y36987D02*
D03*
X38568Y37700D02*
D03*
X37800Y36325D02*
D03*
X33197Y35000D02*
D03*
X24900Y30021D02*
D03*
X28982Y4500D02*
D03*
X18700Y32900D02*
D03*
X20054Y32154D02*
D03*
X18100Y30889D02*
D03*
X18900Y31542D02*
D03*
X14840Y24750D02*
D03*
D92*
X23219Y22364D02*
D03*
Y21290D02*
D03*
X21050Y20216D02*
D03*
X22135D02*
D03*
X24304D02*
D03*
X23219D02*
D03*
X8700Y8318D02*
D03*
X7327Y9733D02*
D03*
X8700Y9764D02*
D03*
Y11210D02*
D03*
X7327Y11179D02*
D03*
X11060Y2300D02*
D03*
X7930D02*
D03*
X9495Y2300D02*
D03*
X14190Y2300D02*
D03*
X12625Y2300D02*
D03*
X15755D02*
D03*
X17320Y2300D02*
D03*
X18884Y2300D02*
D03*
X33542Y19991D02*
D03*
Y21291D02*
D03*
X43924Y2300D02*
D03*
X45489Y2300D02*
D03*
X40794Y2300D02*
D03*
X42359Y2300D02*
D03*
X28274Y2300D02*
D03*
X34534Y2300D02*
D03*
X26709Y2300D02*
D03*
X25144Y2300D02*
D03*
X23579Y2300D02*
D03*
X20449D02*
D03*
X22014Y2300D02*
D03*
X4800Y2300D02*
D03*
X6365Y2300D02*
D03*
X6331Y1025D02*
D03*
X4766Y1025D02*
D03*
X9461Y1025D02*
D03*
X7896Y1025D02*
D03*
X12591D02*
D03*
X11026Y1025D02*
D03*
X15720Y1025D02*
D03*
X14155Y1025D02*
D03*
X18850Y1025D02*
D03*
X17285Y1025D02*
D03*
X21980D02*
D03*
X20415Y1025D02*
D03*
X23545D02*
D03*
X25110Y1025D02*
D03*
X26675Y1025D02*
D03*
X36065Y1025D02*
D03*
X32935Y1025D02*
D03*
X34500Y1025D02*
D03*
X29805Y1025D02*
D03*
X31370Y1025D02*
D03*
X28240Y1025D02*
D03*
X42324Y1025D02*
D03*
X40759Y1025D02*
D03*
X43889Y1025D02*
D03*
X45454Y1025D02*
D03*
X7550Y6474D02*
D03*
X14164Y7970D02*
D03*
Y6405D02*
D03*
X5900Y11179D02*
D03*
Y8049D02*
D03*
Y6484D02*
D03*
X2600Y6505D02*
D03*
Y4940D02*
D03*
Y9635D02*
D03*
Y8070D02*
D03*
Y11200D02*
D03*
X950Y45209D02*
D03*
Y37384D02*
D03*
Y34255D02*
D03*
Y32690D02*
D03*
X45454Y49075D02*
D03*
X43889Y49075D02*
D03*
X40759D02*
D03*
X42324Y49075D02*
D03*
X28240Y49075D02*
D03*
X31370D02*
D03*
X29805D02*
D03*
X34500Y49075D02*
D03*
X32935Y49075D02*
D03*
X36065D02*
D03*
X37630Y49075D02*
D03*
X39195D02*
D03*
X26675Y49075D02*
D03*
X25110D02*
D03*
X23545Y49075D02*
D03*
X20415D02*
D03*
X21980Y49075D02*
D03*
X17285Y49075D02*
D03*
X18850D02*
D03*
X14155Y49075D02*
D03*
X15720Y49075D02*
D03*
X11026Y49075D02*
D03*
X12591Y49075D02*
D03*
X7896Y49075D02*
D03*
X9461D02*
D03*
X4766Y49075D02*
D03*
X6331Y49075D02*
D03*
X950Y21985D02*
D03*
Y20600D02*
D03*
Y23425D02*
D03*
Y24990D02*
D03*
Y26555D02*
D03*
Y29685D02*
D03*
Y28120D02*
D03*
Y31250D02*
D03*
Y17470D02*
D03*
Y19035D02*
D03*
Y14340D02*
D03*
Y15905D02*
D03*
X950Y11210D02*
D03*
X950Y12775D02*
D03*
X950Y8080D02*
D03*
Y9645D02*
D03*
Y4951D02*
D03*
Y6516D02*
D03*
X49075D02*
D03*
Y4951D02*
D03*
Y9645D02*
D03*
Y8080D02*
D03*
X49075Y12775D02*
D03*
X49075Y11210D02*
D03*
X49075Y15905D02*
D03*
Y14340D02*
D03*
Y19035D02*
D03*
Y17470D02*
D03*
Y43769D02*
D03*
Y45334D02*
D03*
Y40639D02*
D03*
Y42204D02*
D03*
Y37509D02*
D03*
Y39074D02*
D03*
Y34380D02*
D03*
Y35945D02*
D03*
Y31250D02*
D03*
Y32815D02*
D03*
Y28120D02*
D03*
Y29685D02*
D03*
Y26555D02*
D03*
Y24990D02*
D03*
X31400Y26800D02*
D03*
X31415Y27849D02*
D03*
X32500D02*
D03*
X32485Y26800D02*
D03*
X49075Y23425D02*
D03*
Y20600D02*
D03*
X34551Y21269D02*
D03*
Y19969D02*
D03*
X46100Y38269D02*
D03*
X45000D02*
D03*
X43900D02*
D03*
X42800D02*
D03*
X41700D02*
D03*
X39586Y25755D02*
D03*
X42187Y29125D02*
D03*
Y28025D02*
D03*
X43342Y28000D02*
D03*
Y29100D02*
D03*
X44525D02*
D03*
X39961Y29700D02*
D03*
X41061D02*
D03*
Y31900D02*
D03*
Y30800D02*
D03*
X39961D02*
D03*
Y31900D02*
D03*
X41061Y28600D02*
D03*
X39961D02*
D03*
Y33000D02*
D03*
X41960Y32500D02*
D03*
X39965Y34086D02*
D03*
X46444Y32700D02*
D03*
X14261Y39239D02*
D03*
X12100Y37600D02*
D03*
X49075Y22110D02*
D03*
D93*
X31654Y34375D02*
D03*
X30718Y33475D02*
D03*
X31654Y33425D02*
D03*
X27270Y29975D02*
D03*
X28192D02*
D03*
Y29050D02*
D03*
X27270D02*
D03*
X27225Y35676D02*
D03*
D94*
X7705Y21095D02*
D03*
D95*
X25699Y27640D02*
D03*
X21499Y27640D02*
D03*
X21499Y22560D02*
D03*
X25699Y22560D02*
D03*
X10039Y42762D02*
D03*
X14239Y42762D02*
D03*
X14239Y37682D02*
D03*
X10039Y37682D02*
D03*
D96*
X13175Y26292D02*
D03*
Y26792D02*
D03*
Y27292D02*
D03*
Y27792D02*
D03*
Y28292D02*
D03*
Y28792D02*
D03*
Y29292D02*
D03*
Y29792D02*
D03*
Y30292D02*
D03*
Y30792D02*
D03*
Y31292D02*
D03*
Y31792D02*
D03*
X5075D02*
D03*
Y31292D02*
D03*
Y30792D02*
D03*
Y30292D02*
D03*
Y29792D02*
D03*
Y29292D02*
D03*
Y28792D02*
D03*
Y28292D02*
D03*
Y27792D02*
D03*
Y27292D02*
D03*
Y26792D02*
D03*
Y26292D02*
D03*
X28999Y33134D02*
D03*
Y33634D02*
D03*
X28999Y34134D02*
D03*
X28999Y34634D02*
D03*
X28999Y35134D02*
D03*
Y35634D02*
D03*
X28999Y36134D02*
D03*
X28999Y36634D02*
D03*
X28999Y37134D02*
D03*
X28999Y37634D02*
D03*
X28999Y38134D02*
D03*
X28999Y38634D02*
D03*
X20899D02*
D03*
X20899Y38134D02*
D03*
X20899Y37634D02*
D03*
X20899Y37134D02*
D03*
X20899Y36634D02*
D03*
X20899Y36134D02*
D03*
X20899Y35634D02*
D03*
X20899Y35134D02*
D03*
X20899Y34634D02*
D03*
X20899Y34134D02*
D03*
Y33634D02*
D03*
X20899Y33134D02*
D03*
D97*
X11875Y33092D02*
D03*
X11375D02*
D03*
X10875D02*
D03*
X10375D02*
D03*
X9875D02*
D03*
X9375D02*
D03*
X8875D02*
D03*
X8375D02*
D03*
X7875D02*
D03*
X7375D02*
D03*
X6875D02*
D03*
X6375D02*
D03*
Y24992D02*
D03*
X6875D02*
D03*
X7375D02*
D03*
X7875D02*
D03*
X8375D02*
D03*
X8875D02*
D03*
X9375D02*
D03*
X9875D02*
D03*
X10375D02*
D03*
X10875D02*
D03*
X11375D02*
D03*
X11875D02*
D03*
X27699Y39934D02*
D03*
X27199D02*
D03*
X26699D02*
D03*
X26199Y39934D02*
D03*
X25699Y39934D02*
D03*
X25199Y39934D02*
D03*
X24699D02*
D03*
X24199Y39934D02*
D03*
X23699Y39934D02*
D03*
X23199Y39934D02*
D03*
X22699D02*
D03*
X22199Y39934D02*
D03*
Y31834D02*
D03*
X22699Y31834D02*
D03*
X23199Y31834D02*
D03*
X23699Y31834D02*
D03*
X24199Y31834D02*
D03*
X24699Y31834D02*
D03*
X25199Y31834D02*
D03*
X25699Y31834D02*
D03*
X26199Y31834D02*
D03*
X26699Y31834D02*
D03*
X27199Y31834D02*
D03*
X27699Y31834D02*
D03*
M02*
