G04*
G04 #@! TF.GenerationSoftware,Altium Limited,Altium Designer,22.7.1 (60)*
G04*
G04 Layer_Color=16711935*
%FSLAX43Y43*%
%MOMM*%
G71*
G04*
G04 #@! TF.SameCoordinates,954B6AC0-D961-4D12-9847-DB1D38B5DF19*
G04*
G04*
G04 #@! TF.FilePolarity,Negative*
G04*
G01*
G75*
G04:AMPARAMS|DCode=18|XSize=0.66mm|YSize=0.65mm|CornerRadius=0.1mm|HoleSize=0mm|Usage=FLASHONLY|Rotation=0.000|XOffset=0mm|YOffset=0mm|HoleType=Round|Shape=RoundedRectangle|*
%AMROUNDEDRECTD18*
21,1,0.660,0.450,0,0,0.0*
21,1,0.460,0.650,0,0,0.0*
1,1,0.200,0.230,-0.225*
1,1,0.200,-0.230,-0.225*
1,1,0.200,-0.230,0.225*
1,1,0.200,0.230,0.225*
%
%ADD18ROUNDEDRECTD18*%
G04:AMPARAMS|DCode=19|XSize=0.64mm|YSize=0.65mm|CornerRadius=0.099mm|HoleSize=0mm|Usage=FLASHONLY|Rotation=90.000|XOffset=0mm|YOffset=0mm|HoleType=Round|Shape=RoundedRectangle|*
%AMROUNDEDRECTD19*
21,1,0.640,0.453,0,0,90.0*
21,1,0.443,0.650,0,0,90.0*
1,1,0.198,0.226,0.221*
1,1,0.198,0.226,-0.221*
1,1,0.198,-0.226,-0.221*
1,1,0.198,-0.226,0.221*
%
%ADD19ROUNDEDRECTD19*%
G04:AMPARAMS|DCode=20|XSize=0.66mm|YSize=0.65mm|CornerRadius=0.1mm|HoleSize=0mm|Usage=FLASHONLY|Rotation=90.000|XOffset=0mm|YOffset=0mm|HoleType=Round|Shape=RoundedRectangle|*
%AMROUNDEDRECTD20*
21,1,0.660,0.450,0,0,90.0*
21,1,0.460,0.650,0,0,90.0*
1,1,0.200,0.225,0.230*
1,1,0.200,0.225,-0.230*
1,1,0.200,-0.225,-0.230*
1,1,0.200,-0.225,0.230*
%
%ADD20ROUNDEDRECTD20*%
G04:AMPARAMS|DCode=21|XSize=0.99mm|YSize=1.08mm|CornerRadius=0.142mm|HoleSize=0mm|Usage=FLASHONLY|Rotation=180.000|XOffset=0mm|YOffset=0mm|HoleType=Round|Shape=RoundedRectangle|*
%AMROUNDEDRECTD21*
21,1,0.990,0.795,0,0,180.0*
21,1,0.705,1.080,0,0,180.0*
1,1,0.285,-0.353,0.398*
1,1,0.285,0.353,0.398*
1,1,0.285,0.353,-0.398*
1,1,0.285,-0.353,-0.398*
%
%ADD21ROUNDEDRECTD21*%
G04:AMPARAMS|DCode=23|XSize=0.64mm|YSize=0.65mm|CornerRadius=0.099mm|HoleSize=0mm|Usage=FLASHONLY|Rotation=180.000|XOffset=0mm|YOffset=0mm|HoleType=Round|Shape=RoundedRectangle|*
%AMROUNDEDRECTD23*
21,1,0.640,0.453,0,0,180.0*
21,1,0.443,0.650,0,0,180.0*
1,1,0.198,-0.221,0.226*
1,1,0.198,0.221,0.226*
1,1,0.198,0.221,-0.226*
1,1,0.198,-0.221,-0.226*
%
%ADD23ROUNDEDRECTD23*%
G04:AMPARAMS|DCode=24|XSize=1.41mm|YSize=1.86mm|CornerRadius=0.195mm|HoleSize=0mm|Usage=FLASHONLY|Rotation=90.000|XOffset=0mm|YOffset=0mm|HoleType=Round|Shape=RoundedRectangle|*
%AMROUNDEDRECTD24*
21,1,1.410,1.470,0,0,90.0*
21,1,1.020,1.860,0,0,90.0*
1,1,0.390,0.735,0.510*
1,1,0.390,0.735,-0.510*
1,1,0.390,-0.735,-0.510*
1,1,0.390,-0.735,0.510*
%
%ADD24ROUNDEDRECTD24*%
G04:AMPARAMS|DCode=27|XSize=0.99mm|YSize=1.08mm|CornerRadius=0.142mm|HoleSize=0mm|Usage=FLASHONLY|Rotation=90.000|XOffset=0mm|YOffset=0mm|HoleType=Round|Shape=RoundedRectangle|*
%AMROUNDEDRECTD27*
21,1,0.990,0.795,0,0,90.0*
21,1,0.705,1.080,0,0,90.0*
1,1,0.285,0.398,0.353*
1,1,0.285,0.398,-0.353*
1,1,0.285,-0.398,-0.353*
1,1,0.285,-0.398,0.353*
%
%ADD27ROUNDEDRECTD27*%
G04:AMPARAMS|DCode=28|XSize=0.97mm|YSize=1.13mm|CornerRadius=0.14mm|HoleSize=0mm|Usage=FLASHONLY|Rotation=0.000|XOffset=0mm|YOffset=0mm|HoleType=Round|Shape=RoundedRectangle|*
%AMROUNDEDRECTD28*
21,1,0.970,0.850,0,0,0.0*
21,1,0.690,1.130,0,0,0.0*
1,1,0.280,0.345,-0.425*
1,1,0.280,-0.345,-0.425*
1,1,0.280,-0.345,0.425*
1,1,0.280,0.345,0.425*
%
%ADD28ROUNDEDRECTD28*%
G04:AMPARAMS|DCode=32|XSize=0.97mm|YSize=1.13mm|CornerRadius=0.14mm|HoleSize=0mm|Usage=FLASHONLY|Rotation=270.000|XOffset=0mm|YOffset=0mm|HoleType=Round|Shape=RoundedRectangle|*
%AMROUNDEDRECTD32*
21,1,0.970,0.850,0,0,270.0*
21,1,0.690,1.130,0,0,270.0*
1,1,0.280,-0.425,-0.345*
1,1,0.280,-0.425,0.345*
1,1,0.280,0.425,0.345*
1,1,0.280,0.425,-0.345*
%
%ADD32ROUNDEDRECTD32*%
G04:AMPARAMS|DCode=33|XSize=1.31mm|YSize=0.63mm|CornerRadius=0.098mm|HoleSize=0mm|Usage=FLASHONLY|Rotation=180.000|XOffset=0mm|YOffset=0mm|HoleType=Round|Shape=RoundedRectangle|*
%AMROUNDEDRECTD33*
21,1,1.310,0.435,0,0,180.0*
21,1,1.115,0.630,0,0,180.0*
1,1,0.195,-0.558,0.217*
1,1,0.195,0.558,0.217*
1,1,0.195,0.558,-0.217*
1,1,0.195,-0.558,-0.217*
%
%ADD33ROUNDEDRECTD33*%
G04:AMPARAMS|DCode=34|XSize=1.26mm|YSize=1.51mm|CornerRadius=0.176mm|HoleSize=0mm|Usage=FLASHONLY|Rotation=270.000|XOffset=0mm|YOffset=0mm|HoleType=Round|Shape=RoundedRectangle|*
%AMROUNDEDRECTD34*
21,1,1.260,1.158,0,0,270.0*
21,1,0.907,1.510,0,0,270.0*
1,1,0.353,-0.579,-0.454*
1,1,0.353,-0.579,0.454*
1,1,0.353,0.579,0.454*
1,1,0.353,0.579,-0.454*
%
%ADD34ROUNDEDRECTD34*%
G04:AMPARAMS|DCode=39|XSize=1.26mm|YSize=1.51mm|CornerRadius=0.176mm|HoleSize=0mm|Usage=FLASHONLY|Rotation=0.000|XOffset=0mm|YOffset=0mm|HoleType=Round|Shape=RoundedRectangle|*
%AMROUNDEDRECTD39*
21,1,1.260,1.158,0,0,0.0*
21,1,0.907,1.510,0,0,0.0*
1,1,0.353,0.454,-0.579*
1,1,0.353,-0.454,-0.579*
1,1,0.353,-0.454,0.579*
1,1,0.353,0.454,0.579*
%
%ADD39ROUNDEDRECTD39*%
%ADD40C,1.950*%
%ADD41C,2.103*%
%ADD42C,1.750*%
%ADD43R,1.750X1.750*%
%ADD44C,1.100*%
%ADD45R,1.448X1.448*%
%ADD46C,1.448*%
%ADD47C,1.580*%
%ADD48C,2.495*%
%ADD49C,3.300*%
%ADD50C,2.150*%
%ADD51C,0.050*%
%ADD52C,3.050*%
%ADD53C,1.903*%
G04:AMPARAMS|DCode=98|XSize=1.85mm|YSize=2.05mm|CornerRadius=0.25mm|HoleSize=0mm|Usage=FLASHONLY|Rotation=270.000|XOffset=0mm|YOffset=0mm|HoleType=Round|Shape=RoundedRectangle|*
%AMROUNDEDRECTD98*
21,1,1.850,1.550,0,0,270.0*
21,1,1.350,2.050,0,0,270.0*
1,1,0.500,-0.775,-0.675*
1,1,0.500,-0.775,0.675*
1,1,0.500,0.775,0.675*
1,1,0.500,0.775,-0.675*
%
%ADD98ROUNDEDRECTD98*%
%ADD99O,1.850X0.300*%
%ADD100O,0.300X1.850*%
D18*
X12930Y20925D02*
D03*
X17200Y32942D02*
D03*
X16200D02*
D03*
X17200Y35692D02*
D03*
X16200D02*
D03*
X17200Y34342D02*
D03*
X16200D02*
D03*
X17200Y31542D02*
D03*
X16200D02*
D03*
X11930Y20925D02*
D03*
X24499Y41775D02*
D03*
X23499D02*
D03*
X24499Y43134D02*
D03*
X23499D02*
D03*
X17200Y37042D02*
D03*
X16200D02*
D03*
X17175Y30192D02*
D03*
X16175D02*
D03*
X17200Y28850D02*
D03*
X16200D02*
D03*
X4375Y32951D02*
D03*
X5375Y32951D02*
D03*
X16125Y26350D02*
D03*
X15125D02*
D03*
X16125Y27600D02*
D03*
X15125Y27600D02*
D03*
D19*
X18475Y18305D02*
D03*
Y17280D02*
D03*
X7870Y35400D02*
D03*
Y36425D02*
D03*
X2875Y30392D02*
D03*
X2875Y31417D02*
D03*
X2875Y28292D02*
D03*
X2875Y29317D02*
D03*
X2875Y27242D02*
D03*
Y26217D02*
D03*
X19043Y38634D02*
D03*
Y39659D02*
D03*
X7975Y42762D02*
D03*
X7975Y41737D02*
D03*
X27699Y41600D02*
D03*
X27699Y42625D02*
D03*
D20*
X14308Y20950D02*
D03*
X5175Y35412D02*
D03*
Y36412D02*
D03*
X6575Y35412D02*
D03*
Y36412D02*
D03*
X14308Y19950D02*
D03*
X26360Y41745D02*
D03*
Y42745D02*
D03*
X29610Y41745D02*
D03*
Y42745D02*
D03*
X29610Y39525D02*
D03*
Y40525D02*
D03*
X14939Y30217D02*
D03*
X14939Y29217D02*
D03*
D21*
X32787Y33842D02*
D03*
X34388Y33842D02*
D03*
X17425Y20750D02*
D03*
X15825Y20750D02*
D03*
D23*
X28805Y30934D02*
D03*
X29830Y30934D02*
D03*
X28805Y31975D02*
D03*
X29830Y31975D02*
D03*
X6475Y23200D02*
D03*
X5450Y23200D02*
D03*
X8600D02*
D03*
X7575Y23200D02*
D03*
X23525Y29818D02*
D03*
X22500Y29818D02*
D03*
D24*
X7753Y21075D02*
D03*
X4903D02*
D03*
D27*
X12755Y17800D02*
D03*
X12755Y19400D02*
D03*
D28*
X32787Y24100D02*
D03*
X34387Y24100D02*
D03*
X32787Y29300D02*
D03*
X34387Y29300D02*
D03*
D32*
X3180Y15250D02*
D03*
X3180Y16850D02*
D03*
D33*
X25220Y45731D02*
D03*
X27280Y45731D02*
D03*
D34*
X5720Y15205D02*
D03*
X5720Y16895D02*
D03*
D39*
X48039Y26900D02*
D03*
X46349Y26900D02*
D03*
D40*
X36177Y14000D02*
D03*
X31500D02*
D03*
X36177Y20750D02*
D03*
X37127Y40215D02*
D03*
D41*
X36177Y16500D02*
D03*
X29000Y14000D02*
D03*
X36177Y23250D02*
D03*
X39627Y40215D02*
D03*
D42*
X32250Y46800D02*
D03*
X32095Y36105D02*
D03*
Y38645D02*
D03*
Y41185D02*
D03*
X2555Y41175D02*
D03*
Y38635D02*
D03*
Y36095D02*
D03*
Y33555D02*
D03*
D43*
X34790Y46800D02*
D03*
D44*
X19750Y45344D02*
D03*
X22250D02*
D03*
X21000D02*
D03*
X17250D02*
D03*
X18500D02*
D03*
D45*
X13415Y15970D02*
D03*
D46*
X14685Y18510D02*
D03*
X15955Y15970D02*
D03*
X17225Y18510D02*
D03*
X18495Y15970D02*
D03*
X19765Y18510D02*
D03*
X21035Y15970D02*
D03*
X22305Y18510D02*
D03*
D47*
X11240Y4720D02*
D03*
X13780D02*
D03*
X24490D02*
D03*
X21950D02*
D03*
D48*
X10120Y12670D02*
D03*
X25610D02*
D03*
D49*
X23580Y9620D02*
D03*
X12150D02*
D03*
D50*
X30250Y10720D02*
D03*
X33250D02*
D03*
X30250Y7720D02*
D03*
X33250D02*
D03*
D51*
X31750Y3400D02*
D03*
D52*
X47550Y2550D02*
D03*
X2550D02*
D03*
X47550Y47550D02*
D03*
X2550D02*
D03*
D53*
X32095Y43725D02*
D03*
X2555Y43715D02*
D03*
D98*
X25699Y27640D02*
D03*
X21499Y27640D02*
D03*
X21499Y22560D02*
D03*
X25699Y22560D02*
D03*
X10039Y42762D02*
D03*
X14239Y42762D02*
D03*
X14239Y37682D02*
D03*
X10039Y37682D02*
D03*
D99*
X13175Y26292D02*
D03*
Y26792D02*
D03*
Y27292D02*
D03*
Y27792D02*
D03*
Y28292D02*
D03*
Y28792D02*
D03*
Y29292D02*
D03*
Y29792D02*
D03*
Y30292D02*
D03*
Y30792D02*
D03*
Y31292D02*
D03*
Y31792D02*
D03*
X5075D02*
D03*
Y31292D02*
D03*
Y30792D02*
D03*
Y30292D02*
D03*
Y29792D02*
D03*
Y29292D02*
D03*
Y28792D02*
D03*
Y28292D02*
D03*
Y27792D02*
D03*
Y27292D02*
D03*
Y26792D02*
D03*
Y26292D02*
D03*
X28999Y33134D02*
D03*
Y33634D02*
D03*
X28999Y34134D02*
D03*
X28999Y34634D02*
D03*
X28999Y35134D02*
D03*
Y35634D02*
D03*
X28999Y36134D02*
D03*
X28999Y36634D02*
D03*
X28999Y37134D02*
D03*
X28999Y37634D02*
D03*
X28999Y38134D02*
D03*
X28999Y38634D02*
D03*
X20899D02*
D03*
X20899Y38134D02*
D03*
X20899Y37634D02*
D03*
X20899Y37134D02*
D03*
X20899Y36634D02*
D03*
X20899Y36134D02*
D03*
X20899Y35634D02*
D03*
X20899Y35134D02*
D03*
X20899Y34634D02*
D03*
X20899Y34134D02*
D03*
Y33634D02*
D03*
X20899Y33134D02*
D03*
D100*
X11875Y33092D02*
D03*
X11375D02*
D03*
X10875D02*
D03*
X10375D02*
D03*
X9875D02*
D03*
X9375D02*
D03*
X8875D02*
D03*
X8375D02*
D03*
X7875D02*
D03*
X7375D02*
D03*
X6875D02*
D03*
X6375D02*
D03*
Y24992D02*
D03*
X6875D02*
D03*
X7375D02*
D03*
X7875D02*
D03*
X8375D02*
D03*
X8875D02*
D03*
X9375D02*
D03*
X9875D02*
D03*
X10375D02*
D03*
X10875D02*
D03*
X11375D02*
D03*
X11875D02*
D03*
X27699Y39934D02*
D03*
X27199D02*
D03*
X26699D02*
D03*
X26199Y39934D02*
D03*
X25699Y39934D02*
D03*
X25199Y39934D02*
D03*
X24699D02*
D03*
X24199Y39934D02*
D03*
X23699Y39934D02*
D03*
X23199Y39934D02*
D03*
X22699D02*
D03*
X22199Y39934D02*
D03*
Y31834D02*
D03*
X22699Y31834D02*
D03*
X23199Y31834D02*
D03*
X23699Y31834D02*
D03*
X24199Y31834D02*
D03*
X24699Y31834D02*
D03*
X25199Y31834D02*
D03*
X25699Y31834D02*
D03*
X26199Y31834D02*
D03*
X26699Y31834D02*
D03*
X27199Y31834D02*
D03*
X27699Y31834D02*
D03*
M02*
