M48
;Layer_Color=9474304
;FILE_FORMAT=4:3
METRIC,LZ
;TYPE=PLATED
T1F00S00C0.300
T2F00S00C0.500
T3F00S00C0.600
T4F00S00C0.850
T5F00S00C0.890
T6F00S00C0.900
T7F00S00C1.020
T8F00S00C1.120
T9F00S00C1.630
T10F00S00C2.500
;TYPE=NON_PLATED
T11F00S00C3.100
T12F00S00C3.250
%
T01
X0028982Y00045
X0034518
X004318Y0010019
X0043025Y0012799
X004318Y0014933
X004497Y00141
X004568Y0015883
X0047Y00163
X0046649Y0010019
X0036671Y00286
X0036759Y003257
X0031654Y00326
X0030718Y003265
Y0031934
Y0034375
X0027225Y0034642
X0028244Y00326
X00282Y003145
X0028003Y0028275
X0028695
X002944
X0028375Y0026611
X00269Y0026046
X002488Y00251
X00231Y0027665
Y00287
X0023699Y0030496
X00249Y0030021
X0025Y0033442
X0024199
X0022699
X0020054Y0032154
X00189Y0031542
X00181Y0030889
X00187Y00329
X0017757Y0028186
X0016991Y00276
X0016991Y002635
X00144Y0025519
X001484Y002475
X0014745Y00225
X0016225Y0022045
X001645Y0023466
X00125Y00235
X00116
X0010614Y0023486
X00109Y00264
X0011639Y00264
X0010915Y00276
Y0028792
Y0029692
Y0030692
Y0031592
X0009025Y0031642
X0008325
X0007625
Y0030825
X0008325
Y0030008
X0007625
Y002919
X0008325
Y0028373
X0007625
X00077Y00273
X00066Y0027177
X00067Y0028035
Y00293
Y0030492
Y0031627
X0005613Y0033825
X000788Y0034625
X0009025Y0030272
Y0028922
Y002755
X0008025Y0026372
X0007575Y0022378
X00093Y0021075
X0004589Y002215
Y0023201
Y00242
X00033Y00255
X00036Y0027292
Y0028292
X00038Y0029292
X00036Y0030292
X000325Y00321
X00126Y00333
X0014642Y0031031
X0020608Y0029123
X0018475Y0019613
X000572Y0018115
X000344Y0018115
X000318Y001205
X000574
X0004325Y0035259
X0005188Y003745
X0006575
X0007881
X000875Y0036409
X0007975Y0040905
Y00436
X0019975Y0039975
X0019043Y0037768
X0018066Y0037042
X0019175Y0035717
X00192Y00348
X0022357Y0038134
X0027199Y0038475
X0028531Y00416
X0027699Y0043457
X002875Y0045731
X0030442Y0040525
X0033425Y0042066
X0033197Y0035
X00378Y0036325
X003815Y0036987
X0037375Y003705
X0037839Y00377
X0038568
T02
X002824Y0001025
X0028274Y00023
X0029805Y0001025
X003137Y0001025
X0032935
X00345Y0001025
X0034534Y00023
X0036065Y0001025
X0040759Y0001025
X0040794Y00023
X0042359Y00023
X0042324Y0001025
X0043889
X0043924Y00023
X0045489Y00023
X0045454Y0001025
X0049075Y0004951
Y0006516
Y000808
Y0009645
Y001121
X0049075Y0012775
Y001434
Y0015905
Y001747
Y0019035
Y00206
Y002211
Y0023425
Y002499
Y0026555
Y002812
Y0029685
Y003125
Y0032815
Y003438
X0046444Y00327
X004196Y00325
X0041061Y00319
Y00308
Y00297
X0039961
Y00308
Y00319
Y0033
X0039965Y0034086
X0039961Y00286
X0041061
X0042187Y0029125
Y0028025
X0043342Y0028
Y00291
X0044525
X0039586Y0025755
X0032485Y00268
X00325Y0027849
X0031415
X00314Y00268
X0028192Y002905
X002727
Y0029975
X0028192
X0030718Y0033475
X0031654Y0033425
Y0034375
X0033542Y0021291
X0034551Y0021269
Y0019969
X0033542Y0019991
X0024304Y0020216
X0023219
Y002129
Y0022364
X0022135Y0020216
X002105
X0020449Y00023
X0020415Y0001025
X001885
X0018884Y00023
X001732Y00023
X0017285Y0001025
X001572Y0001025
X0015755Y00023
X001419Y00023
X0014155Y0001025
X0012591Y0001025
X0012625Y00023
X001106Y00023
X0011026Y0001025
X0009461Y0001025
X0009495Y00023
X000793Y00023
X0007896Y0001025
X0006331Y0001025
X0006365Y00023
X00048Y00023
X0004766Y0001025
X00026Y000494
Y0006505
Y000807
Y0009635
Y00112
X000095Y001121
Y0009645
Y000808
Y0006516
Y0004951
X00059Y0006484
Y0008049
X00087Y0008318
Y0009764
X0007327Y0009733
Y0011179
X00087Y001121
X00059Y0011179
X000755Y0006474
X0014164Y0006405
Y000797
X0022014Y00023
X002198Y0001025
X0023545Y0001025
X0023579Y00023
X0025144Y00023
X002511Y0001025
X0026675Y0001025
X0026709Y00023
X000095Y0012775
Y001434
Y0015905
Y001747
Y0019035
Y00206
Y0021985
Y0023425
Y002499
Y0026555
Y002812
Y0029685
Y003125
Y003269
Y0034255
Y0037384
Y0045209
X0004766Y0049075
X0006331Y0049075
X0007896Y0049075
X0009461
X0011026
X0012591Y0049075
X0014155Y0049075
X001572Y0049075
X0017285
X001885
X0020415
X002198Y0049075
X0023545Y0049075
X002511Y0049075
X0026675
X0014261Y0039239
X00121Y00376
X0027225Y0035676
X002824Y0049075
X0029805
X003137
X0032935
X00345Y0049075
X0036065Y0049075
X003763Y0049075
X0039195
X0040759
X0042324Y0049075
X0043889Y0049075
X0045454Y0049075
X0049075Y0045334
Y0043769
Y0042204
Y0040639
Y0039074
Y0037509
Y0035945
X00461Y0038269
X0045
X00439
X00428
X00417
T03
X001725Y0045344
X00185
X001975
X0021
X002225
T04
X0029Y0014
X00315
X0036177
Y00165
Y002075
Y002325
X0037127Y0040215
X0039627
T05
X0013415Y001597
X0015955
X0018495
X0021035
X0019765Y001851
X0017225
X0014685
X0022305
T06
X0002555Y0033555
Y0036095
Y0038635
Y0041175
Y0043715
X0032095Y0043725
Y0041185
Y0038645
Y0036105
X003225Y00468
X003479
T07
X001124Y000472
X001378
X002195
X002449
T08
X003025Y000772
X003325
Y001072
X003025
T09
X001012Y001267
X002561
T10
X004755Y000255
X000255
Y004755
X004755
T11
X003175Y00034
T12
X001215Y000962
X002358
M30
